<svg width="132" height="48" viewBox="0 0 132 48" fill="none" xmlns="http://www.w3.org/2000/svg">
<path d="M6.568 37.2399C6.568 36.6212 6.44 36.1946 6.184 35.9599C5.928 35.7039 5.49067 35.5759 4.872 35.5759C4.53067 35.5759 4.232 35.6079 3.976 35.6719C3.74133 35.7146 3.47467 35.7999 3.176 35.9279V30.9039C4.15733 30.4986 5.416 30.2959 6.952 30.2959C8.33867 30.2959 9.416 30.4559 10.184 30.7759C10.9733 31.0746 11.5387 31.5652 11.88 32.2479C12.2213 32.9092 12.392 33.8159 12.392 34.9679V46.1679H6.568V37.2399ZM1 46.9999V42.0079H17.16V46.9999H1Z" fill="#2B2D34"/>
<path d="M19.556 46.9999V30.7119H25.636L24.772 35.4799H25.38C25.7 34.3279 26.1907 33.3679 26.852 32.5999C27.5133 31.8106 28.3453 31.2346 29.348 30.8719C30.3507 30.4879 31.5133 30.2959 32.836 30.2959C34.6067 30.2959 36.1427 30.6479 37.444 31.3519C38.7453 32.0346 39.7373 33.0372 40.42 34.3599C41.124 35.6826 41.476 37.2506 41.476 39.0639V46.9999H35.396V40.5039C35.396 39.4159 35.1933 38.4986 34.788 37.7519C34.404 36.9839 33.8493 36.4079 33.124 36.0239C32.3987 35.6186 31.524 35.4159 30.5 35.4159C28.9853 35.4159 27.7907 35.8532 26.916 36.7279C26.0627 37.6026 25.636 38.8612 25.636 40.5039V46.9999H19.556Z" fill="#2B2D34"/>
<path d="M49.307 46.9999L42.011 30.7119H49.083L52.347 39.8639C52.8163 41.3572 53.051 42.5839 53.051 43.5439V43.6719H53.659V43.5439C53.659 42.5839 53.8937 41.3572 54.363 39.8639L57.627 30.7119H64.699L57.403 46.9999H49.307Z" fill="#2B2D34"/>
<path d="M76.488 47.4479C74.0987 47.4479 72.0507 47.0639 70.344 46.2959C68.6587 45.5279 67.3787 44.5039 66.504 43.2239C65.6507 41.9226 65.224 40.4719 65.224 38.8719C65.224 37.2719 65.6507 35.8212 66.504 34.5199C67.3787 33.2186 68.6693 32.1946 70.376 31.4479C72.104 30.6799 74.1627 30.2959 76.552 30.2959C78.9627 30.2959 81.0213 30.6799 82.728 31.4479C84.4347 32.1946 85.7253 33.2292 86.6 34.5519C87.4747 35.8532 87.912 37.3146 87.912 38.9359C87.912 39.4052 87.8693 39.9172 87.784 40.4719H70.056V37.2719H83.464L82.344 39.5759V38.8719C82.344 38.0186 82.1307 37.2826 81.704 36.6639C81.2773 36.0239 80.6373 35.5226 79.784 35.1599C78.9307 34.7972 77.8533 34.6159 76.552 34.6159C75.272 34.6159 74.1947 34.7972 73.32 35.1599C72.4667 35.5226 71.8267 36.0239 71.4 36.6639C70.9947 37.2826 70.792 38.0186 70.792 38.8719C70.792 39.7039 70.9947 40.4399 71.4 41.0799C71.8267 41.7199 72.4773 42.2212 73.352 42.5839C74.2267 42.9252 75.304 43.0959 76.584 43.0959C78.0347 43.0959 79.1333 42.9572 79.88 42.6799C80.6267 42.4026 81.2453 42.0506 81.736 41.6239H87.592C87.272 42.5199 86.6853 43.4159 85.832 44.3119C84.9787 45.1866 83.7627 45.9332 82.184 46.5519C80.6267 47.1492 78.728 47.4479 76.488 47.4479Z" fill="#2B2D34"/>
<path d="M90.9622 46.9999V30.7119H97.0423L96.1783 35.4799H96.7862C97.1062 34.3279 97.5969 33.3679 98.2582 32.5999C98.9196 31.8106 99.7516 31.2346 100.754 30.8719C101.757 30.4879 102.92 30.2959 104.242 30.2959C106.013 30.2959 107.549 30.6479 108.85 31.3519C110.152 32.0346 111.144 33.0372 111.826 34.3599C112.53 35.6826 112.882 37.2506 112.882 39.0639V46.9999H106.802V40.5039C106.802 39.4159 106.6 38.4986 106.194 37.7519C105.81 36.9839 105.256 36.4079 104.53 36.0239C103.805 35.6186 102.93 35.4159 101.906 35.4159C100.392 35.4159 99.1969 35.8532 98.3223 36.7279C97.4689 37.6026 97.0423 38.8612 97.0423 40.5039V46.9999H90.9622Z" fill="#2B2D34"/>
<path d="M120.506 37.2399C120.506 36.6212 120.377 36.1946 120.121 35.9599C119.866 35.7039 119.428 35.5759 118.81 35.5759C118.468 35.5759 118.169 35.6079 117.913 35.6719C117.679 35.7146 117.412 35.7999 117.114 35.9279V30.9039C118.095 30.4986 119.354 30.2959 120.89 30.2959C122.276 30.2959 123.354 30.4559 124.121 30.7759C124.911 31.0746 125.476 31.5652 125.817 32.2479C126.159 32.9092 126.329 33.8159 126.329 34.9679V46.1679H120.506V37.2399ZM114.938 46.9999V42.0079H131.098V46.9999H114.938Z" fill="#2B2D34"/>
<path d="M7.84747 11.6821L50.5097 21.3901C51.3573 21.583 52.2469 21.3987 52.9481 20.8851L77.6269 2.80865C78.3282 2.29501 79.2177 2.11077 80.0653 2.30364L122.728 12.0116" stroke="#2B2D34" stroke-width="3"/>
<circle cx="9" cy="12" r="7" fill="#C28CFC" stroke="#2B2D34" stroke-width="3"/>
<circle cx="122" cy="12" r="7" fill="#F98452" stroke="#2B2D34" stroke-width="3"/>
</svg>
