<svg width="823" height="622" viewBox="0 0 823 622" fill="none" xmlns="http://www.w3.org/2000/svg">
<mask id="mask0_755_8155" style="mask-type:alpha" maskUnits="userSpaceOnUse" x="0" y="0" width="823" height="622">
<rect width="823" height="622" fill="#D9D9D9"/>
</mask>
<g mask="url(#mask0_755_8155)">
<path d="M449.063 248.595L490.504 207.165L490.504 240.709L450.108 282.102L449.945 282.269L450.03 282.481L450.944 284.766L399.288 336.255L397.775 336.415L347.616 286.256L347.616 253.116L396.705 302.187L396.849 302.331L397.075 302.363L399.056 302.64L399.373 302.684L399.563 302.495L450.438 251.782L450.625 251.595L450.504 251.362L449.063 248.595Z" fill="#EDEDED" stroke="#2B2D34"/>
<path d="M459.723 278.956C458.931 279.748 457.925 280.112 456.965 280.11C456.012 280.107 455.032 279.745 454.259 278.971C452.681 277.393 452.653 274.773 454.263 273.163C455.055 272.371 456.061 272.007 457.02 272.009C457.974 272.011 458.953 272.374 459.726 273.147C461.305 274.726 461.333 277.346 459.723 278.956Z" fill="#C28CFC" stroke="#2B2D34"/>
<path fill-rule="evenodd" clip-rule="evenodd" d="M378.411 140.89L514.226 5.07496C514.979 4.32163 514.979 3.10025 514.226 2.34692L508.77 -3.10914C508.016 -3.86246 506.795 -3.86246 506.042 -3.10913L370.416 132.517L253.368 229.772C252.762 230.276 251.911 230.354 251.2 230.013C241.532 225.384 229.594 227.075 221.584 235.085C211.43 245.239 211.43 261.701 221.584 271.855C227.766 278.037 236.286 280.455 244.297 279.109C245.13 278.969 245.978 279.334 246.399 280.066L334.531 432.961C334.967 433.717 334.841 434.671 334.224 435.288L298.406 471.106C297.652 471.86 297.652 473.081 298.406 473.834L303.862 479.29C304.615 480.044 305.836 480.044 306.59 479.29L346.591 439.289C348.442 437.438 348.82 434.575 347.513 432.307L256.986 275.255C256.509 274.429 256.714 273.384 257.42 272.743C257.737 272.456 258.048 272.16 258.353 271.855C267.035 263.173 268.294 249.88 262.129 239.861C261.6 238.999 261.739 237.865 262.516 237.219L378.017 141.249C378.154 141.135 378.285 141.015 378.411 140.89ZM250.169 263.671C244.536 269.304 235.402 269.304 229.768 263.671C224.134 258.037 224.134 248.903 229.768 243.269C235.402 237.636 244.536 237.636 250.169 243.269C255.803 248.903 255.803 258.037 250.169 263.671Z" fill="#E0E3FF"/>
<path d="M440.837 533.535L350.934 443.632C350.181 442.878 348.959 442.878 348.206 443.632L309.922 481.916C309.168 482.669 309.168 483.89 309.922 484.644L399.825 574.547C400.578 575.3 401.799 575.3 402.553 574.547L440.837 536.263C441.59 535.509 441.59 534.288 440.837 533.535Z" fill="#E0E3FF"/>
<path d="M375.024 503.513C375.857 503.513 376.567 503.647 377.154 503.915C377.74 504.182 378.188 504.568 378.496 505.072C378.805 505.576 378.959 506.188 378.959 506.908C378.959 507.629 378.805 508.241 378.496 508.745C378.188 509.249 377.74 509.635 377.154 509.902C376.567 510.17 375.857 510.303 375.024 510.303H373.003V513.699H370.348V503.513H375.024ZM374.607 508.313C375.163 508.313 375.58 508.2 375.857 507.973C376.146 507.737 376.29 507.382 376.29 506.908C376.29 506.435 376.146 506.085 375.857 505.859C375.58 505.622 375.163 505.504 374.607 505.504H373.003V508.313H374.607Z" fill="#8FC9FF"/>
<path d="M656.233 303.841L656.556 304.164L656.896 303.86L693.078 271.459L693.078 304.682L657.887 340.369L656.8 340.217L605.461 289.181L605.249 288.971L604.967 289.066L603.907 289.423L603.799 289.459L603.719 289.539L578.955 314.293L563.411 296.32L563.411 290.084L599.246 255.365L604.021 251.642L656.233 303.841Z" fill="#EDEDED" stroke="#2B2D34"/>
<path d="M616.231 383.852L616.541 384.142L616.868 383.872L638.578 365.905L638.578 399.683L616.322 422.434L615.168 422.649L526.542 334.18L526.542 299.991L616.231 383.852Z" fill="#EDEDED" stroke="#2B2D34"/>
<path d="M586.043 233.886L620.565 199.364C621.318 198.611 622.539 198.611 623.293 199.364L692.69 268.761C693.443 269.514 693.443 270.736 692.69 271.489L658.648 305.53C657.895 306.284 656.673 306.284 655.92 305.53L605.969 255.579C605.215 254.826 603.994 254.826 603.241 255.579L568.138 290.681C567.385 291.435 567.385 292.656 568.138 293.409L638.242 363.513C638.996 364.266 638.996 365.488 638.242 366.241L616.929 387.555C616.175 388.308 614.954 388.308 614.201 387.555L527.126 300.48C526.373 299.727 526.373 298.506 527.126 297.752L586.043 238.835C586.726 238.152 586.726 237.044 586.043 236.361C585.36 235.677 585.36 234.569 586.043 233.886Z" fill="white" stroke="#2B2D34"/>
<circle cx="582.054" cy="242.774" r="4" transform="rotate(45 582.054 242.774)" fill="#C28CFC" stroke="#2B2D34"/>
<path d="M458.721 486.723L459.064 487.064L459.404 486.72L504.079 441.554L504.079 475.182L459.377 520.145L458.222 520.36L363.543 425.681L363.543 392.041L458.721 486.723Z" fill="#EDEDED" stroke="black"/>
<path d="M532.722 422.222L533.063 422.559L533.402 422.22L562.079 393.543L562.079 427.179L533.39 455.868L532.3 455.716L455.961 379.681L455.749 379.47L455.467 379.566L454.407 379.922L454.3 379.958L454.22 380.038L438.929 395.318L422.116 378.505L424.396 376.297L424.399 376.294L454.73 346.391L456.316 346.613L532.722 422.222Z" fill="#EDEDED" stroke="#2B2D34"/>
<path d="M426.877 334.416L461.272 300.021C462.026 299.268 463.247 299.268 464 300.021L474.127 310.148C474.81 310.831 475.918 310.831 476.602 310.148C477.285 309.464 478.393 309.464 479.077 310.148L561.681 392.753C562.435 393.506 562.435 394.727 561.681 395.481L534.357 422.805C533.604 423.558 532.383 423.558 531.629 422.805L456.929 348.105C456.176 347.351 454.955 347.351 454.201 348.105L424.402 377.904C423.649 378.657 423.649 379.878 424.402 380.632L456.676 412.905C457.429 413.659 458.651 413.659 459.404 412.905L466.222 406.087C466.975 405.334 468.197 405.334 468.95 406.087L503.699 440.836C504.452 441.589 504.452 442.811 503.699 443.564L460.111 487.152C459.358 487.905 458.137 487.905 457.383 487.152L363.945 393.713C363.191 392.96 363.191 391.738 363.945 390.985L420.967 333.962C421.721 333.209 422.942 333.209 423.695 333.962L424.149 334.416C424.903 335.17 426.124 335.17 426.877 334.416Z" fill="white" stroke="#2B2D34"/>
<circle cx="471.224" cy="306.031" r="4" transform="rotate(45 471.224 306.031)" fill="#C28CFC" stroke="#2B2D34"/>
<mask id="path-15-inside-1_755_8155" fill="white">
<path fill-rule="evenodd" clip-rule="evenodd" d="M285.203 356.835C286.093 364.412 284.779 372.125 281.364 379.028L275.096 391.698C272.511 396.924 269.348 401.844 265.667 406.366L251.91 423.267C248.28 427.727 244.314 431.903 240.048 435.758L226.655 447.86C220.331 453.575 213.167 458.287 205.414 461.831L200.042 464.287C194.96 466.61 189.519 468.048 183.953 468.539C173.786 469.436 163.592 467.14 154.79 461.971L153.569 461.254C148.588 458.329 144.113 454.616 140.319 450.26L135.511 444.739C129.832 438.219 125.038 430.979 121.251 423.207L118.491 417.541C115.186 410.757 112.57 403.659 110.682 396.353L107.832 385.326C106.207 379.036 105.127 372.617 104.606 366.141L103.705 354.942C103.179 348.408 103.338 341.837 104.18 335.336L104.949 329.391C106.171 319.949 109.408 310.879 114.44 302.797L115.297 301.421C117.406 298.034 119.895 294.899 122.717 292.078L126.863 287.932C131.756 283.038 138.036 279.769 144.85 278.566C149.828 277.688 154.939 277.939 159.806 279.302L160.082 279.379C166.612 281.208 172.471 284.896 176.945 289.993L185.292 299.506L195.729 314.001C197.248 316.111 199.074 317.981 201.146 319.551C206.618 323.697 213.505 325.518 220.311 324.619L228.426 323.547L229.615 323.234C237.651 321.12 246.088 321.051 254.157 323.036L256.345 323.573C261.024 324.724 265.442 326.754 269.363 329.554C272.565 331.841 275.366 334.593 277.69 337.694L285.929 328L285.203 356.835Z"/>
</mask>
<path fill-rule="evenodd" clip-rule="evenodd" d="M285.203 356.835C286.093 364.412 284.779 372.125 281.364 379.028L275.096 391.698C272.511 396.924 269.348 401.844 265.667 406.366L251.91 423.267C248.28 427.727 244.314 431.903 240.048 435.758L226.655 447.86C220.331 453.575 213.167 458.287 205.414 461.831L200.042 464.287C194.96 466.61 189.519 468.048 183.953 468.539C173.786 469.436 163.592 467.14 154.79 461.971L153.569 461.254C148.588 458.329 144.113 454.616 140.319 450.26L135.511 444.739C129.832 438.219 125.038 430.979 121.251 423.207L118.491 417.541C115.186 410.757 112.57 403.659 110.682 396.353L107.832 385.326C106.207 379.036 105.127 372.617 104.606 366.141L103.705 354.942C103.179 348.408 103.338 341.837 104.18 335.336L104.949 329.391C106.171 319.949 109.408 310.879 114.44 302.797L115.297 301.421C117.406 298.034 119.895 294.899 122.717 292.078L126.863 287.932C131.756 283.038 138.036 279.769 144.85 278.566C149.828 277.688 154.939 277.939 159.806 279.302L160.082 279.379C166.612 281.208 172.471 284.896 176.945 289.993L185.292 299.506L195.729 314.001C197.248 316.111 199.074 317.981 201.146 319.551C206.618 323.697 213.505 325.518 220.311 324.619L228.426 323.547L229.615 323.234C237.651 321.12 246.088 321.051 254.157 323.036L256.345 323.573C261.024 324.724 265.442 326.754 269.363 329.554C272.565 331.841 275.366 334.593 277.69 337.694L285.929 328L285.203 356.835Z" fill="#EDEDED"/>
<path d="M281.364 379.028L280.5 378.6L280.5 378.6L281.364 379.028ZM285.203 356.835L284.239 356.811L284.238 356.88L284.246 356.948L285.203 356.835ZM275.096 391.698L275.961 392.125L275.961 392.125L275.096 391.698ZM265.667 406.366L266.415 406.974L266.415 406.974L265.667 406.366ZM251.91 423.267L251.162 422.659L251.162 422.659L251.91 423.267ZM240.048 435.758L240.695 436.474L240.695 436.474L240.048 435.758ZM226.655 447.86L226.009 447.144L226.009 447.144L226.655 447.86ZM205.414 461.831L205.815 462.708L205.815 462.708L205.414 461.831ZM200.042 464.287L199.641 463.41L199.641 463.41L200.042 464.287ZM183.953 468.539L184.038 469.5L184.038 469.5L183.953 468.539ZM154.79 461.971L154.302 462.803L154.302 462.803L154.79 461.971ZM153.569 461.254L153.08 462.086L153.08 462.086L153.569 461.254ZM140.319 450.26L141.047 449.626L141.047 449.626L140.319 450.26ZM135.511 444.739L136.238 444.105L136.238 444.105L135.511 444.739ZM121.251 423.207L120.384 423.629L120.384 423.629L121.251 423.207ZM118.491 417.541L117.624 417.963L117.624 417.963L118.491 417.541ZM110.682 396.353L109.748 396.594L109.748 396.594L110.682 396.353ZM107.832 385.326L108.766 385.085L108.766 385.085L107.832 385.326ZM104.606 366.141L105.568 366.064L105.568 366.064L104.606 366.141ZM103.705 354.942L104.667 354.865L104.667 354.865L103.705 354.942ZM104.18 335.336L105.136 335.459L105.136 335.459L104.18 335.336ZM104.949 329.391L103.993 329.267L103.993 329.267L104.949 329.391ZM114.44 302.797L115.259 303.306L115.259 303.306L114.44 302.797ZM115.297 301.421L114.478 300.911L114.478 300.911L115.297 301.421ZM144.85 278.566L144.683 277.616L144.683 277.616L144.85 278.566ZM159.806 279.302L159.546 280.231L159.546 280.231L159.806 279.302ZM160.082 279.379L160.342 278.451L160.342 278.451L160.082 279.379ZM176.945 289.993L176.22 290.629L176.22 290.629L176.945 289.993ZM185.292 299.506L186.075 298.942L186.048 298.904L186.017 298.87L185.292 299.506ZM195.729 314.001L196.512 313.438L196.512 313.438L195.729 314.001ZM201.146 319.551L200.563 320.32L200.563 320.32L201.146 319.551ZM220.311 324.619L220.185 323.663L220.185 323.663L220.311 324.619ZM228.426 323.547L228.552 324.504L228.612 324.496L228.671 324.48L228.426 323.547ZM229.615 323.234L229.369 322.302L229.369 322.302L229.615 323.234ZM254.157 323.036L254.388 322.099L254.388 322.099L254.157 323.036ZM256.345 323.573L256.115 324.51L256.115 324.51L256.345 323.573ZM269.363 329.554L268.802 330.339L268.802 330.339L269.363 329.554ZM277.69 337.694L276.918 338.272L277.642 339.239L278.425 338.319L277.69 337.694ZM285.929 328L286.893 328.025L286.961 325.296L285.194 327.376L285.929 328ZM282.229 379.456C285.727 372.385 287.073 364.484 286.161 356.723L284.246 356.948C285.113 364.34 283.832 371.866 280.5 378.6L282.229 379.456ZM275.961 392.125L282.229 379.456L280.5 378.6L274.232 391.27L275.961 392.125ZM266.415 406.974C270.142 402.397 273.343 397.416 275.961 392.125L274.232 391.27C271.678 396.431 268.555 401.291 264.919 405.757L266.415 406.974ZM252.658 423.876L266.415 406.974L264.919 405.757L251.162 422.659L252.658 423.876ZM240.695 436.474C244.998 432.586 248.997 428.374 252.658 423.876L251.162 422.659C247.563 427.08 243.631 431.22 239.401 435.043L240.695 436.474ZM227.302 448.575L240.695 436.474L239.401 435.043L226.009 447.144L227.302 448.575ZM205.815 462.708C213.658 459.123 220.904 454.357 227.302 448.575L226.009 447.144C219.757 452.793 212.676 457.451 205.013 460.954L205.815 462.708ZM200.443 465.164L205.815 462.708L205.013 460.954L199.641 463.41L200.443 465.164ZM184.038 469.5C189.713 468.999 195.261 467.533 200.443 465.164L199.641 463.41C194.659 465.687 189.325 467.097 183.869 467.578L184.038 469.5ZM154.302 462.803C163.276 468.074 173.671 470.415 184.038 469.5L183.869 467.578C173.901 468.458 163.907 466.207 155.279 461.14L154.302 462.803ZM153.08 462.086L154.302 462.803L155.279 461.14L154.057 460.422L153.08 462.086ZM139.592 450.893C143.454 455.328 148.01 459.108 153.08 462.086L154.057 460.422C149.166 457.55 144.772 453.904 141.047 449.626L139.592 450.893ZM134.784 445.372L139.592 450.893L141.047 449.626L136.238 444.105L134.784 445.372ZM120.384 423.629C124.208 431.478 129.049 438.789 134.784 445.372L136.238 444.105C130.615 437.65 125.868 430.481 122.118 422.784L120.384 423.629ZM117.624 417.963L120.384 423.629L122.118 422.784L119.358 417.119L117.624 417.963ZM109.748 396.594C111.652 403.963 114.291 411.122 117.624 417.963L119.358 417.119C116.081 410.393 113.487 403.355 111.615 396.111L109.748 396.594ZM106.898 385.567L109.748 396.594L111.615 396.111L108.766 385.085L106.898 385.567ZM103.645 366.219C104.17 372.75 105.259 379.223 106.898 385.567L108.766 385.085C107.154 378.848 106.084 372.484 105.568 366.064L103.645 366.219ZM102.744 355.02L103.645 366.219L105.568 366.064L104.667 354.865L102.744 355.02ZM103.223 335.212C102.373 341.78 102.213 348.418 102.744 355.02L104.667 354.865C104.146 348.398 104.304 341.894 105.136 335.459L103.223 335.212ZM103.993 329.267L103.223 335.212L105.136 335.459L105.906 329.515L103.993 329.267ZM113.622 302.287C108.516 310.487 105.232 319.688 103.993 329.267L105.906 329.515C107.11 320.21 110.3 311.272 115.259 303.306L113.622 302.287ZM114.478 300.911L113.622 302.287L115.259 303.306L116.116 301.931L114.478 300.911ZM122.035 291.396C119.161 294.269 116.626 297.462 114.478 300.911L116.116 301.931C118.186 298.606 120.629 295.529 123.399 292.76L122.035 291.396ZM126.181 287.249L122.035 291.396L123.399 292.76L127.545 288.614L126.181 287.249ZM144.683 277.616C137.673 278.853 131.214 282.216 126.181 287.249L127.545 288.614C132.298 283.86 138.398 280.684 145.018 279.516L144.683 277.616ZM160.066 278.373C155.06 276.972 149.802 276.713 144.683 277.616L145.018 279.516C149.853 278.663 154.818 278.907 159.546 280.231L160.066 278.373ZM160.342 278.451L160.066 278.373L159.546 280.231L159.822 280.308L160.342 278.451ZM177.669 289.357C173.073 284.119 167.053 280.33 160.342 278.451L159.822 280.308C166.172 282.086 171.869 285.672 176.22 290.629L177.669 289.357ZM186.017 298.87L177.669 289.357L176.22 290.629L184.567 300.142L186.017 298.87ZM196.512 313.438L186.075 298.942L184.51 300.069L194.946 314.565L196.512 313.438ZM201.728 318.782C199.733 317.271 197.975 315.469 196.512 313.438L194.946 314.565C196.521 316.752 198.415 318.692 200.563 320.32L201.728 318.782ZM220.185 323.663C213.63 324.529 206.998 322.775 201.728 318.782L200.563 320.32C206.238 324.619 213.379 326.507 220.438 325.575L220.185 323.663ZM228.3 322.591L220.185 323.663L220.438 325.575L228.552 324.504L228.3 322.591ZM229.369 322.302L228.18 322.615L228.671 324.48L229.86 324.167L229.369 322.302ZM254.388 322.099C246.162 320.076 237.561 320.146 229.369 322.302L229.86 324.167C237.74 322.093 246.014 322.026 253.927 323.972L254.388 322.099ZM256.575 322.637L254.388 322.099L253.927 323.972L256.115 324.51L256.575 322.637ZM269.923 328.77C265.903 325.898 261.373 323.817 256.575 322.637L256.115 324.51C260.675 325.631 264.981 327.61 268.802 330.339L269.923 328.77ZM278.462 337.116C276.079 333.936 273.206 331.115 269.923 328.77L268.802 330.339C271.923 332.568 274.653 335.25 276.918 338.272L278.462 337.116ZM278.425 338.319L286.664 328.625L285.194 327.376L276.955 337.069L278.425 338.319ZM284.964 327.976L284.239 356.811L286.168 356.859L286.893 328.025L284.964 327.976Z" fill="black" mask="url(#path-15-inside-1_755_8155)"/>
<path d="M185.292 264.844L176.945 255.331C172.471 250.234 166.613 246.546 160.082 244.717L159.806 244.64C154.939 243.277 149.828 243.026 144.851 243.904C138.036 245.107 131.756 248.376 126.863 253.27L122.717 257.416C119.895 260.237 117.406 263.372 115.297 266.759L114.441 268.135C109.408 276.217 106.171 285.287 104.949 294.729L104.18 300.674C103.339 307.175 103.18 313.746 103.705 320.28L104.606 331.479C105.127 337.955 106.207 344.374 107.832 350.664L110.682 361.691C112.57 368.997 115.186 376.095 118.491 382.879L121.251 388.545C125.038 396.317 129.833 403.557 135.511 410.077L140.319 415.598C144.113 419.954 148.588 423.667 153.569 426.592L154.791 427.309C163.592 432.478 173.786 434.774 183.954 433.877C189.519 433.386 194.96 431.948 200.042 429.625L205.414 427.169C213.167 423.625 220.331 418.913 226.656 413.198L240.048 401.096C244.315 397.241 248.28 393.065 251.91 388.605L265.668 371.704C269.348 367.182 272.511 362.262 275.096 357.036L281.365 344.366C285.534 335.939 286.571 326.304 284.291 317.182L284.146 316.606C281.955 307.841 276.714 300.143 269.363 294.892C265.442 292.092 261.024 290.062 256.345 288.911L254.158 288.374C246.088 286.389 237.651 286.458 229.615 288.572L228.426 288.885L220.311 289.957C213.505 290.856 206.618 289.035 201.146 284.889C199.074 283.319 197.248 281.449 195.729 279.339L185.292 264.844Z" fill="white" stroke="#2B2D34"/>
<path d="M104.56 335.88L102.928 312.38L102.928 350.38L104.56 335.88Z" fill="#C28CFC"/>
<circle cx="207.988" cy="289.408" r="4" transform="rotate(45 207.988 289.408)" fill="#C28CFC" stroke="#2B2D34"/>
<path d="M414.82 259.727L418.432 263.339L416.981 264.79L411.492 259.301L418.694 252.099L420.571 253.976L414.82 259.727ZM417.915 265.724L419.115 264.523C420.119 264.756 421.006 264.923 421.778 265.025C422.549 265.127 423.218 265.163 423.785 265.134C424.36 265.113 424.848 265.032 425.248 264.894C425.648 264.756 425.975 264.56 426.23 264.305C426.506 264.029 426.652 263.716 426.666 263.367C426.695 263.017 426.55 262.683 426.23 262.363C425.888 262.021 425.495 261.883 425.051 261.948C424.615 262.006 424.149 262.268 423.654 262.734L422.541 260.639C423.094 260.115 423.673 259.791 424.276 259.667C424.888 259.551 425.495 259.613 426.099 259.853C426.71 260.086 427.285 260.471 427.823 261.01C428.296 261.482 428.634 261.959 428.838 262.439C429.056 262.919 429.161 263.381 429.154 263.825C429.154 264.261 429.067 264.669 428.892 265.047C428.732 265.425 428.51 265.756 428.227 266.04C427.761 266.506 427.205 266.822 426.557 266.989C425.917 267.149 425.179 267.189 424.342 267.109C423.52 267.029 422.596 266.855 421.57 266.586L421.559 266.597C421.69 266.713 421.843 266.851 422.018 267.011C422.192 267.171 422.371 267.342 422.552 267.524C422.742 267.699 422.909 267.859 423.054 268.004L424.746 269.696L423.316 271.125L417.915 265.724Z" fill="#C28CFC"/>
<path d="M489.94 205.317L449.246 164.623C448.492 163.869 447.271 163.869 446.518 164.623L419.708 191.433C418.954 192.186 417.733 192.186 416.98 191.433L413.754 188.208C413.001 187.455 411.78 187.455 411.026 188.208L347.997 251.238C347.243 251.991 347.243 253.212 347.997 253.966L396.745 302.714C397.499 303.468 398.72 303.468 399.473 302.714L450.509 251.679C451.089 251.098 451.089 250.158 450.509 249.578C449.929 248.997 449.929 248.057 450.509 247.477L489.94 208.045C490.694 207.292 490.694 206.071 489.94 205.317Z" fill="white" stroke="#2B2D34"/>
<path d="M580.928 172.982L581.119 172.982L581.258 172.852L626.577 130.491L626.577 163.678L579.856 209.707L572.625 202.755L573.68 200.055L573.794 199.764L573.574 199.541L550.402 176.041L550.192 175.827L549.907 175.922L547.187 176.829L515.541 145.678L515.542 111.421L546.747 137.868L546.792 137.905L546.843 137.931L549.78 139.399L574.84 163.107L572.798 167.288L572.623 167.646L572.94 167.885L579.569 172.885L579.698 172.982L579.86 172.982L580.928 172.982Z" fill="#EDEDED" stroke="#2B2D34"/>
<circle cx="554.924" cy="182.744" r="4" transform="rotate(45 554.924 182.744)" fill="#C28CFC" stroke="#2B2D34"/>
<path d="M626.325 127.397L563.292 64.3645C562.539 63.6112 561.318 63.6112 560.564 64.3645L515.916 109.013C515.163 109.766 515.163 110.987 515.916 111.741L546.372 142.196C546.958 142.782 547.907 142.782 548.493 142.196C549.079 141.611 550.029 141.611 550.615 142.196L572.358 163.94C573.041 164.623 573.041 165.731 572.358 166.415C571.675 167.098 571.675 168.206 572.358 168.89L578.595 175.127C579.349 175.88 580.57 175.88 581.323 175.127L626.325 130.125C627.078 129.372 627.078 128.151 626.325 127.397Z" fill="white" stroke="#2B2D34"/>
<path d="M458.428 487.5V520M532.928 423V456M455.428 348V379.5M615.428 387.5V423M656.928 306V340.5M604.428 255.5V289M397.928 303V335.5M450.928 250.5V284.5M580.428 175.5V209M571.928 168.5V203M549.928 142V175.5M547.428 142V175.5" stroke="black"/>
</g>
</svg>
