<svg width="1500" height="1650" viewBox="0 0 1500 1650" fill="none" xmlns="http://www.w3.org/2000/svg">
<rect width="1500" height="1650" fill="white"/>
<path d="M720.875 1054.27H1175.31C1178.08 1054.27 1180.31 1056.51 1180.31 1059.27V1084.5C1180.31 1087.26 1182.55 1089.5 1185.31 1089.5H1329.7C1332.46 1089.5 1334.7 1087.26 1334.7 1084.5V566.641C1334.7 563.879 1332.46 561.641 1329.7 561.641H112.94C110.179 561.641 107.94 563.879 107.94 566.641V1084.5C107.94 1087.26 110.179 1089.5 112.94 1089.5H710.875C713.636 1089.5 715.875 1087.26 715.875 1084.5V1059.27C715.875 1056.51 718.114 1054.27 720.875 1054.27Z" fill="#E0E3FF" stroke="#2B2D34" stroke-width="3"/>
<path d="M1179.67 847.992V965.988C1179.67 968.749 1181.91 970.988 1184.67 970.988H1334.7" stroke="#2B2D34" stroke-width="3"/>
<path d="M938.806 847.991H1334.7V566.641C1334.7 563.879 1332.46 561.641 1329.7 561.641H112.299C109.538 561.641 107.299 563.879 107.299 566.641V1084.5C107.299 1087.26 109.538 1089.5 112.299 1089.5H627.471V910.646C627.471 907.885 629.71 905.646 632.471 905.646H933.806C936.567 905.646 938.806 903.407 938.806 900.646V847.991Z" fill="white" stroke="#2B2D34" stroke-width="3"/>
<path d="M1014.4 847.992V718.589H938.806" stroke="#2B2D34" stroke-width="3"/>
<path d="M938.806 853.757V562.281" stroke="#2B2D34" stroke-width="3"/>
<path d="M629.393 796.743V701.293" stroke="#2B2D34" stroke-width="3" stroke-linecap="round"/>
<path d="M627.471 986.362L627.471 924.864" stroke="#AEAEAE" stroke-width="3"/>
<path d="M627.471 1046.58L627.471 1008.14" stroke="#AEAEAE" stroke-width="3"/>
<path d="M959.305 847.992H997.742" stroke="#AEAEAE" stroke-width="3"/>
<path d="M1014.4 789.056L1014.4 827.492" stroke="#AEAEAE" stroke-width="3"/>
<path d="M1014.4 727.558L1014.4 753.182" stroke="#AEAEAE" stroke-width="3"/>
<path d="M977.242 718.589H1002.87" stroke="#AEAEAE" stroke-width="3"/>
<path d="M1124.58 847.992H1163.02" stroke="#AEAEAE" stroke-width="3"/>
<path d="M1179.67 951.77L1179.67 922.302" stroke="#AEAEAE" stroke-width="3"/>
<path d="M859.371 1054.27H918.307" stroke="#AEAEAE" stroke-width="3"/>
<path d="M787.623 1054.27H846.559" stroke="#AEAEAE" stroke-width="3"/>
<path d="M1180.31 906.927H1256.55M1256.55 906.927V970.347M1256.55 906.927V899.756C1256.55 896.994 1258.79 894.756 1261.55 894.756H1334.7" stroke="#2B2D34"/>
<path d="M1015.68 722.433V562.922" stroke="#2B2D34"/>
<path d="M1089.99 561V691.684V758.307M1089.99 847.992V758.307M1089.99 758.307H1013.76" stroke="#2B2D34"/>
<rect x="634.096" y="625.279" width="118.715" height="46.9673" rx="3.5" fill="#EDEDED" stroke="#2B2D34" stroke-width="3"/>
<path d="M637.081 903.724V864.522C637.081 861.761 639.319 859.522 642.081 859.522H867.824C870.585 859.522 872.824 857.284 872.824 854.522V641.716V604.436C872.824 601.675 870.585 599.436 867.824 599.436H757.39C754.628 599.436 752.39 597.198 752.39 594.436V561" stroke="#2B2D34" stroke-width="3"/>
<path d="M107.299 621.217L107.299 582.781" stroke="#AEAEAE" stroke-width="3"/>
<rect x="1200.67" y="921.521" width="31.0303" height="31.0303" rx="1.5" fill="#A4EB5D" stroke="#2B2D34"/>
<path d="M1222.86 931.707C1223.06 931.476 1223.41 931.476 1223.61 931.707L1225.85 934.287C1226.13 934.61 1225.9 935.114 1225.47 935.114H1221C1220.57 935.114 1220.34 934.61 1220.62 934.287L1222.86 931.707Z" fill="#2B2D34"/>
<path d="M1223.61 942.365C1223.41 942.595 1223.06 942.595 1222.86 942.365L1220.62 939.785C1220.34 939.461 1220.57 938.958 1221 938.958L1225.47 938.958C1225.9 938.958 1226.13 939.461 1225.85 939.785L1223.61 942.365Z" fill="#2B2D34"/>
<path d="M1214.84 926.218C1214.84 927.673 1213.72 928.853 1212.34 928.853C1210.97 928.853 1209.85 927.673 1209.85 926.218C1209.85 924.763 1210.97 923.583 1212.34 923.583C1213.72 923.583 1214.84 924.763 1214.84 926.218Z" fill="#2B2D34"/>
<path d="M1209.85 939.949C1209.85 939.367 1210.3 938.895 1210.85 938.895C1211.4 938.895 1211.85 939.367 1211.85 939.949V949.435C1211.85 950.017 1211.4 950.488 1210.85 950.488C1210.3 950.488 1209.85 950.017 1209.85 949.435V939.949Z" fill="#2B2D34"/>
<path d="M1207.86 932.177C1207.86 931.648 1208.27 931.218 1208.77 931.218C1209.27 931.218 1209.67 931.648 1209.67 932.177V940.016C1209.67 940.546 1209.27 940.975 1208.77 940.975C1208.27 940.975 1207.86 940.546 1207.86 940.016V932.177Z" fill="#2B2D34"/>
<path d="M1215.07 932.15C1215.07 931.636 1215.46 931.218 1215.95 931.218C1216.43 931.218 1216.83 931.636 1216.83 932.15V940.043C1216.83 940.558 1216.43 940.975 1215.95 940.975C1215.46 940.975 1215.07 940.558 1215.07 940.043V932.15Z" fill="#2B2D34"/>
<path d="M1212.84 939.949C1212.84 939.367 1213.29 938.895 1213.84 938.895C1214.39 938.895 1214.84 939.367 1214.84 939.949V949.435C1214.84 950.017 1214.39 950.488 1213.84 950.488C1213.29 950.488 1212.84 950.017 1212.84 949.435V939.949Z" fill="#2B2D34"/>
<path d="M1207.86 931.831C1207.86 930.328 1209.01 929.11 1210.43 929.11H1214.26C1215.68 929.11 1216.83 930.328 1216.83 931.831V932.917H1207.86V931.831Z" fill="#2B2D34"/>
<path d="M1209.85 931.218H1214.84V940.154H1209.85V931.218Z" fill="#2B2D34"/>
<path d="M1049.63 787.775V792.899M1065.65 806.993L1064.42 808.633C1064.05 809.12 1063.34 809.17 1062.91 808.74L1058.25 804.083C1058.06 803.895 1057.81 803.79 1057.54 803.79H1053.79H1050.63C1050.08 803.79 1049.63 803.342 1049.63 802.79V792.899M1049.63 792.899H1056.68" stroke="#2B2D34" stroke-width="3" stroke-linecap="round"/>
<circle cx="1049.63" cy="780.728" r="4.48424" fill="#2B2D34"/>
<path d="M1058.79 812.687C1057.67 814.373 1056.07 815.686 1054.19 816.462C1052.32 817.238 1050.26 817.441 1048.27 817.046C1046.28 816.65 1044.46 815.674 1043.02 814.24C1041.59 812.807 1040.61 810.981 1040.22 808.992C1039.82 807.004 1040.03 804.943 1040.8 803.07C1041.58 801.197 1042.89 799.597 1044.58 798.47" stroke="#2B2D34" stroke-width="3" stroke-linecap="round"/>
<circle cx="1051.55" cy="639.723" r="5.69426" fill="#2B2D34"/>
<rect x="1045.86" y="667.12" width="4.55541" height="25.0547" rx="2.2777" fill="#2B2D34"/>
<rect x="1041.3" y="650.53" width="4.1446" height="21.085" rx="2.0723" fill="#2B2D34"/>
<rect x="1057.77" y="650.53" width="4.02894" height="21.085" rx="2.01447" fill="#2B2D34"/>
<rect x="1052.69" y="667.12" width="4.55541" height="25.0547" rx="2.2777" fill="#2B2D34"/>
<path d="M1041.3 648.974C1041.3 647.317 1042.65 645.974 1044.3 645.974H1058.8C1060.46 645.974 1061.8 647.317 1061.8 648.974V654.201H1041.3V648.974Z" fill="#2B2D34"/>
<rect x="1045.86" y="650.53" width="11.3885" height="19.3099" fill="#2B2D34"/>
<circle cx="977.883" cy="639.696" r="5.6667" fill="#2B2D34"/>
<rect x="972.216" y="666.959" width="4.53336" height="24.9335" rx="2.26668" fill="#2B2D34"/>
<rect x="979.016" y="666.959" width="4.53336" height="24.9335" rx="2.26668" fill="#2B2D34"/>
<path d="M972.216 649.896H983.55L988.083 674.829H967.683L972.216 649.896Z" fill="#2B2D34"/>
<path fill-rule="evenodd" clip-rule="evenodd" d="M966.892 652.78C967.649 649.753 970.369 647.629 973.489 647.629H982.277C985.397 647.629 988.117 649.753 988.874 652.78L992.549 667.48C992.852 668.694 992.114 669.925 990.899 670.228C989.685 670.532 988.454 669.794 988.151 668.579L984.476 653.879C984.223 652.87 983.317 652.163 982.277 652.163H973.489C972.449 652.163 971.542 652.87 971.29 653.879L967.615 668.579C967.312 669.794 966.081 670.532 964.866 670.228C963.652 669.925 962.914 668.694 963.217 667.48L966.892 652.78Z" fill="#2B2D34"/>
<path d="M338.044 839.541V847.461H336.544V843.333L336.628 841.017H336.604L334.408 847.461H333.052L330.868 841.017H330.844L330.928 843.333V847.461H329.428V839.541H331.828L333.256 843.861L333.76 845.649H333.784L334.3 843.873L335.716 839.541H338.044ZM342.661 847.581C342.029 847.581 341.477 847.457 341.005 847.209C340.541 846.961 340.181 846.605 339.925 846.141C339.669 845.677 339.541 845.117 339.541 844.461C339.541 843.805 339.669 843.245 339.925 842.781C340.181 842.317 340.537 841.961 340.993 841.713C341.457 841.465 341.985 841.341 342.577 841.341C343.185 841.341 343.701 841.465 344.125 841.713C344.549 841.953 344.873 842.285 345.097 842.709C345.321 843.125 345.433 843.601 345.433 844.137C345.433 844.297 345.429 844.449 345.421 844.593C345.413 844.737 345.401 844.865 345.385 844.977H340.597V843.837H344.665L343.873 844.125C343.873 843.621 343.757 843.233 343.525 842.961C343.301 842.689 342.981 842.553 342.565 842.553C342.261 842.553 341.997 842.625 341.773 842.769C341.557 842.913 341.393 843.129 341.281 843.417C341.169 843.697 341.113 844.053 341.113 844.485C341.113 844.909 341.173 845.261 341.293 845.541C341.421 845.813 341.597 846.017 341.821 846.153C342.053 846.289 342.329 846.357 342.649 846.357C343.001 846.357 343.285 846.289 343.501 846.153C343.717 846.017 343.885 845.829 344.005 845.589L345.313 846.093C345.185 846.405 344.989 846.673 344.725 846.897C344.469 847.121 344.161 847.293 343.801 847.413C343.449 847.525 343.069 847.581 342.661 847.581ZM346.826 847.461V841.461H348.302L348.398 843.261L348.194 843.069C348.29 842.677 348.442 842.353 348.65 842.097C348.858 841.841 349.11 841.653 349.406 841.533C349.71 841.405 350.042 841.341 350.402 841.341C350.818 841.341 351.186 841.421 351.506 841.581C351.834 841.741 352.09 841.985 352.274 842.313C352.466 842.633 352.562 843.037 352.562 843.525V847.461H350.918V843.993C350.918 843.481 350.818 843.129 350.618 842.937C350.418 842.737 350.158 842.637 349.838 842.637C349.614 842.637 349.394 842.693 349.178 842.805C348.97 842.909 348.798 843.081 348.662 843.321C348.534 843.561 348.47 843.881 348.47 844.281V847.461H346.826ZM356.656 847.581C356.048 847.581 355.492 847.473 354.988 847.257C354.492 847.041 354.088 846.737 353.776 846.345L354.724 845.385C354.916 845.673 355.172 845.909 355.492 846.093C355.812 846.277 356.192 846.369 356.632 846.369C356.944 846.369 357.192 846.325 357.376 846.237C357.568 846.141 357.664 845.993 357.664 845.793C357.664 845.665 357.62 845.557 357.532 845.469C357.444 845.373 357.268 845.297 357.004 845.241L355.948 845.025C355.252 844.881 354.756 844.665 354.46 844.377C354.172 844.081 354.028 843.701 354.028 843.237C354.028 842.909 354.124 842.601 354.316 842.313C354.516 842.025 354.812 841.793 355.204 841.617C355.596 841.433 356.084 841.341 356.668 841.341C357.268 841.341 357.788 841.437 358.228 841.629C358.676 841.813 359.028 842.089 359.284 842.457L358.3 843.417C358.124 843.137 357.892 842.925 357.604 842.781C357.324 842.629 357.028 842.553 356.716 842.553C356.492 842.553 356.3 842.577 356.14 842.625C355.98 842.673 355.86 842.741 355.78 842.829C355.7 842.909 355.66 843.013 355.66 843.141C355.66 843.269 355.716 843.381 355.828 843.477C355.94 843.565 356.144 843.641 356.44 843.705L357.664 843.957C358.256 844.077 358.68 844.281 358.936 844.569C359.192 844.849 359.32 845.189 359.32 845.589C359.32 845.973 359.216 846.317 359.008 846.621C358.808 846.917 358.508 847.153 358.108 847.329C357.716 847.497 357.232 847.581 356.656 847.581ZM364.051 843.633C364.051 843.289 363.951 843.021 363.751 842.829C363.559 842.637 363.303 842.541 362.983 842.541C362.687 842.541 362.427 842.617 362.203 842.769C361.979 842.921 361.815 843.173 361.711 843.525L360.307 843.093C360.443 842.565 360.739 842.141 361.195 841.821C361.659 841.501 362.279 841.341 363.055 841.341C363.583 841.341 364.043 841.425 364.435 841.593C364.827 841.753 365.131 841.997 365.347 842.325C365.571 842.653 365.683 843.065 365.683 843.561V845.997C365.683 846.301 365.827 846.453 366.115 846.453C366.251 846.453 366.379 846.433 366.499 846.393L366.403 847.413C366.195 847.517 365.935 847.569 365.623 847.569C365.343 847.569 365.091 847.521 364.867 847.425C364.643 847.329 364.467 847.185 364.339 846.993C364.211 846.793 364.147 846.545 364.147 846.249V846.201L364.435 846.153C364.387 846.457 364.255 846.717 364.039 846.933C363.823 847.141 363.559 847.301 363.247 847.413C362.943 847.525 362.627 847.581 362.299 847.581C361.891 847.581 361.539 847.521 361.243 847.401C360.947 847.273 360.719 847.089 360.559 846.849C360.399 846.609 360.319 846.313 360.319 845.961C360.319 845.513 360.463 845.149 360.751 844.869C361.039 844.581 361.451 844.385 361.987 844.281L364.243 843.825L364.231 844.845L362.791 845.133C362.519 845.189 362.311 845.265 362.167 845.361C362.031 845.449 361.963 845.597 361.963 845.805C361.963 846.005 362.035 846.157 362.179 846.261C362.331 846.365 362.511 846.417 362.719 846.417C362.887 846.417 363.051 846.397 363.211 846.357C363.371 846.317 363.515 846.253 363.643 846.165C363.771 846.077 363.871 845.957 363.943 845.805C364.015 845.653 364.051 845.469 364.051 845.253V843.633Z" fill="#2B2D34"/>
<path d="M710.513 757.776V749.856H716.453V751.188H712.169V753.156H715.541V754.428H712.169V756.444H716.621V757.776H710.513ZM720.339 757.896C719.731 757.896 719.175 757.788 718.671 757.572C718.175 757.356 717.771 757.052 717.459 756.66L718.407 755.7C718.599 755.988 718.855 756.224 719.175 756.408C719.495 756.592 719.875 756.684 720.315 756.684C720.627 756.684 720.875 756.64 721.059 756.552C721.251 756.456 721.347 756.308 721.347 756.108C721.347 755.98 721.303 755.872 721.215 755.784C721.127 755.688 720.951 755.612 720.687 755.556L719.631 755.34C718.935 755.196 718.439 754.98 718.143 754.692C717.855 754.396 717.711 754.016 717.711 753.552C717.711 753.224 717.807 752.916 717.999 752.628C718.199 752.34 718.495 752.108 718.887 751.932C719.279 751.748 719.767 751.656 720.351 751.656C720.951 751.656 721.471 751.752 721.911 751.944C722.359 752.128 722.711 752.404 722.967 752.772L721.983 753.732C721.807 753.452 721.575 753.24 721.287 753.096C721.007 752.944 720.711 752.868 720.399 752.868C720.175 752.868 719.983 752.892 719.823 752.94C719.663 752.988 719.543 753.056 719.463 753.144C719.383 753.224 719.343 753.328 719.343 753.456C719.343 753.584 719.399 753.696 719.511 753.792C719.623 753.88 719.827 753.956 720.123 754.02L721.347 754.272C721.939 754.392 722.363 754.596 722.619 754.884C722.875 755.164 723.003 755.504 723.003 755.904C723.003 756.288 722.899 756.632 722.691 756.936C722.491 757.232 722.191 757.468 721.791 757.644C721.399 757.812 720.915 757.896 720.339 757.896ZM726.714 757.896C726.106 757.896 725.55 757.788 725.046 757.572C724.55 757.356 724.146 757.052 723.834 756.66L724.782 755.7C724.974 755.988 725.23 756.224 725.55 756.408C725.87 756.592 726.25 756.684 726.69 756.684C727.002 756.684 727.25 756.64 727.434 756.552C727.626 756.456 727.722 756.308 727.722 756.108C727.722 755.98 727.678 755.872 727.59 755.784C727.502 755.688 727.326 755.612 727.062 755.556L726.006 755.34C725.31 755.196 724.814 754.98 724.518 754.692C724.23 754.396 724.086 754.016 724.086 753.552C724.086 753.224 724.182 752.916 724.374 752.628C724.574 752.34 724.87 752.108 725.262 751.932C725.654 751.748 726.142 751.656 726.726 751.656C727.326 751.656 727.846 751.752 728.286 751.944C728.734 752.128 729.086 752.404 729.342 752.772L728.358 753.732C728.182 753.452 727.95 753.24 727.662 753.096C727.382 752.944 727.086 752.868 726.774 752.868C726.55 752.868 726.358 752.892 726.198 752.94C726.038 752.988 725.918 753.056 725.838 753.144C725.758 753.224 725.718 753.328 725.718 753.456C725.718 753.584 725.774 753.696 725.886 753.792C725.998 753.88 726.202 753.956 726.498 754.02L727.722 754.272C728.314 754.392 728.738 754.596 728.994 754.884C729.25 755.164 729.378 755.504 729.378 755.904C729.378 756.288 729.274 756.632 729.066 756.936C728.866 757.232 728.566 757.468 728.166 757.644C727.774 757.812 727.29 757.896 726.714 757.896ZM733.45 757.896C732.818 757.896 732.266 757.772 731.794 757.524C731.33 757.276 730.97 756.92 730.714 756.456C730.458 755.992 730.33 755.432 730.33 754.776C730.33 754.12 730.458 753.56 730.714 753.096C730.97 752.632 731.326 752.276 731.782 752.028C732.246 751.78 732.774 751.656 733.366 751.656C733.974 751.656 734.49 751.78 734.914 752.028C735.338 752.268 735.662 752.6 735.886 753.024C736.11 753.44 736.222 753.916 736.222 754.452C736.222 754.612 736.218 754.764 736.21 754.908C736.202 755.052 736.19 755.18 736.174 755.292H731.386V754.152H735.454L734.662 754.44C734.662 753.936 734.546 753.548 734.314 753.276C734.09 753.004 733.77 752.868 733.354 752.868C733.05 752.868 732.786 752.94 732.562 753.084C732.346 753.228 732.182 753.444 732.07 753.732C731.958 754.012 731.902 754.368 731.902 754.8C731.902 755.224 731.962 755.576 732.082 755.856C732.21 756.128 732.386 756.332 732.61 756.468C732.842 756.604 733.118 756.672 733.438 756.672C733.79 756.672 734.074 756.604 734.29 756.468C734.506 756.332 734.674 756.144 734.794 755.904L736.102 756.408C735.974 756.72 735.778 756.988 735.514 757.212C735.258 757.436 734.95 757.608 734.59 757.728C734.238 757.84 733.858 757.896 733.45 757.896ZM737.615 757.776V751.776H739.091L739.187 753.576L738.983 753.384C739.079 752.992 739.231 752.668 739.439 752.412C739.647 752.156 739.899 751.968 740.195 751.848C740.499 751.72 740.831 751.656 741.191 751.656C741.607 751.656 741.975 751.736 742.295 751.896C742.623 752.056 742.879 752.3 743.063 752.628C743.255 752.948 743.351 753.352 743.351 753.84V757.776H741.707V754.308C741.707 753.796 741.607 753.444 741.407 753.252C741.207 753.052 740.947 752.952 740.627 752.952C740.403 752.952 740.183 753.008 739.967 753.12C739.759 753.224 739.587 753.396 739.451 753.636C739.323 753.876 739.259 754.196 739.259 754.596V757.776H737.615ZM747.445 757.896C746.837 757.896 746.281 757.788 745.777 757.572C745.281 757.356 744.877 757.052 744.565 756.66L745.513 755.7C745.705 755.988 745.961 756.224 746.281 756.408C746.601 756.592 746.981 756.684 747.421 756.684C747.733 756.684 747.981 756.64 748.165 756.552C748.357 756.456 748.453 756.308 748.453 756.108C748.453 755.98 748.409 755.872 748.321 755.784C748.233 755.688 748.057 755.612 747.793 755.556L746.737 755.34C746.041 755.196 745.545 754.98 745.249 754.692C744.961 754.396 744.817 754.016 744.817 753.552C744.817 753.224 744.913 752.916 745.105 752.628C745.305 752.34 745.601 752.108 745.993 751.932C746.385 751.748 746.873 751.656 747.457 751.656C748.057 751.656 748.577 751.752 749.017 751.944C749.465 752.128 749.817 752.404 750.073 752.772L749.089 753.732C748.913 753.452 748.681 753.24 748.393 753.096C748.113 752.944 747.817 752.868 747.505 752.868C747.281 752.868 747.089 752.892 746.929 752.94C746.769 752.988 746.649 753.056 746.569 753.144C746.489 753.224 746.449 753.328 746.449 753.456C746.449 753.584 746.505 753.696 746.617 753.792C746.729 753.88 746.933 753.956 747.229 754.02L748.453 754.272C749.045 754.392 749.469 754.596 749.725 754.884C749.981 755.164 750.109 755.504 750.109 755.904C750.109 756.288 750.005 756.632 749.797 756.936C749.597 757.232 749.297 757.468 748.897 757.644C748.505 757.812 748.021 757.896 747.445 757.896ZM754.84 753.948C754.84 753.604 754.74 753.336 754.54 753.144C754.348 752.952 754.092 752.856 753.772 752.856C753.476 752.856 753.216 752.932 752.992 753.084C752.768 753.236 752.604 753.488 752.5 753.84L751.096 753.408C751.232 752.88 751.528 752.456 751.984 752.136C752.448 751.816 753.068 751.656 753.844 751.656C754.372 751.656 754.832 751.74 755.224 751.908C755.616 752.068 755.92 752.312 756.136 752.64C756.36 752.968 756.472 753.38 756.472 753.876V756.312C756.472 756.616 756.616 756.768 756.904 756.768C757.04 756.768 757.168 756.748 757.288 756.708L757.192 757.728C756.984 757.832 756.724 757.884 756.412 757.884C756.132 757.884 755.88 757.836 755.656 757.74C755.432 757.644 755.256 757.5 755.128 757.308C755 757.108 754.936 756.86 754.936 756.564V756.516L755.224 756.468C755.176 756.772 755.044 757.032 754.828 757.248C754.612 757.456 754.348 757.616 754.036 757.728C753.732 757.84 753.416 757.896 753.088 757.896C752.68 757.896 752.328 757.836 752.032 757.716C751.736 757.588 751.508 757.404 751.348 757.164C751.188 756.924 751.108 756.628 751.108 756.276C751.108 755.828 751.252 755.464 751.54 755.184C751.828 754.896 752.24 754.7 752.776 754.596L755.032 754.14L755.02 755.16L753.58 755.448C753.308 755.504 753.1 755.58 752.956 755.676C752.82 755.764 752.752 755.912 752.752 756.12C752.752 756.32 752.824 756.472 752.968 756.576C753.12 756.68 753.3 756.732 753.508 756.732C753.676 756.732 753.84 756.712 754 756.672C754.16 756.632 754.304 756.568 754.432 756.48C754.56 756.392 754.66 756.272 754.732 756.12C754.804 755.968 754.84 755.784 754.84 755.568V753.948ZM760.398 757.896C759.998 757.896 759.638 757.824 759.318 757.68C758.998 757.536 758.742 757.308 758.55 756.996C758.366 756.676 758.274 756.264 758.274 755.76V751.776H759.918V755.364C759.918 755.828 760.014 756.152 760.206 756.336C760.398 756.512 760.674 756.6 761.034 756.6C761.202 756.6 761.366 756.572 761.526 756.516C761.686 756.452 761.826 756.356 761.946 756.228C762.074 756.1 762.174 755.936 762.246 755.736C762.318 755.528 762.354 755.284 762.354 755.004V751.776H763.998V757.776H762.534L762.474 756.732C762.274 757.132 761.998 757.428 761.646 757.62C761.302 757.804 760.886 757.896 760.398 757.896ZM768.128 757.896C767.52 757.896 766.964 757.788 766.46 757.572C765.964 757.356 765.56 757.052 765.248 756.66L766.196 755.7C766.388 755.988 766.644 756.224 766.964 756.408C767.284 756.592 767.664 756.684 768.104 756.684C768.416 756.684 768.664 756.64 768.848 756.552C769.04 756.456 769.136 756.308 769.136 756.108C769.136 755.98 769.092 755.872 769.004 755.784C768.916 755.688 768.74 755.612 768.476 755.556L767.42 755.34C766.724 755.196 766.228 754.98 765.932 754.692C765.644 754.396 765.5 754.016 765.5 753.552C765.5 753.224 765.596 752.916 765.788 752.628C765.988 752.34 766.284 752.108 766.676 751.932C767.068 751.748 767.556 751.656 768.14 751.656C768.74 751.656 769.26 751.752 769.7 751.944C770.148 752.128 770.5 752.404 770.756 752.772L769.772 753.732C769.596 753.452 769.364 753.24 769.076 753.096C768.796 752.944 768.5 752.868 768.188 752.868C767.964 752.868 767.772 752.892 767.612 752.94C767.452 752.988 767.332 753.056 767.252 753.144C767.172 753.224 767.132 753.328 767.132 753.456C767.132 753.584 767.188 753.696 767.3 753.792C767.412 753.88 767.616 753.956 767.912 754.02L769.136 754.272C769.728 754.392 770.152 754.596 770.408 754.884C770.664 755.164 770.792 755.504 770.792 755.904C770.792 756.288 770.688 756.632 770.48 756.936C770.28 757.232 769.98 757.468 769.58 757.644C769.188 757.812 768.704 757.896 768.128 757.896ZM777.588 750.348L777.78 751.524C777.748 751.524 777.712 751.524 777.672 751.524C777.64 751.516 777.604 751.512 777.564 751.512C777.196 751.512 776.92 751.596 776.736 751.764C776.552 751.924 776.46 752.148 776.46 752.436L775.788 752.16C775.788 751.84 775.852 751.544 775.98 751.272C776.108 750.992 776.296 750.768 776.544 750.6C776.8 750.432 777.104 750.348 777.456 750.348C777.472 750.348 777.492 750.348 777.516 750.348C777.54 750.348 777.564 750.348 777.588 750.348ZM775.62 756.648C776.268 756.648 776.768 756.788 777.12 757.068C777.472 757.348 777.648 757.74 777.648 758.244C777.648 758.7 777.516 759.084 777.252 759.396C776.988 759.716 776.616 759.956 776.136 760.116C775.664 760.276 775.116 760.356 774.492 760.356C773.46 760.356 772.704 760.212 772.224 759.924C771.752 759.636 771.516 759.26 771.516 758.796C771.516 758.468 771.64 758.192 771.888 757.968C772.144 757.744 772.564 757.62 773.148 757.596L773.088 757.788C772.672 757.716 772.352 757.58 772.128 757.38C771.912 757.172 771.804 756.888 771.804 756.528C771.804 756.16 771.944 755.86 772.224 755.628C772.512 755.388 772.9 755.248 773.388 755.208L774.108 755.544H773.94C773.596 755.568 773.352 755.64 773.208 755.76C773.072 755.872 773.004 756 773.004 756.144C773.004 756.312 773.068 756.44 773.196 756.528C773.332 756.608 773.524 756.648 773.772 756.648H775.62ZM774.504 759.228C774.92 759.228 775.26 759.192 775.524 759.12C775.796 759.048 775.996 758.956 776.124 758.844C776.26 758.732 776.328 758.608 776.328 758.472C776.328 758.32 776.268 758.196 776.148 758.1C776.028 758.012 775.812 757.968 775.5 757.968H773.472C773.28 757.968 773.12 758.016 772.992 758.112C772.872 758.208 772.812 758.34 772.812 758.508C772.812 758.732 772.96 758.908 773.256 759.036C773.56 759.164 773.976 759.228 774.504 759.228ZM774.516 751.656C775.076 751.656 775.56 751.74 775.968 751.908C776.384 752.068 776.7 752.3 776.916 752.604C777.14 752.908 777.252 753.272 777.252 753.696C777.252 754.112 777.14 754.472 776.916 754.776C776.7 755.08 776.384 755.316 775.968 755.484C775.56 755.644 775.076 755.724 774.516 755.724C773.628 755.724 772.948 755.544 772.476 755.184C772.012 754.816 771.78 754.32 771.78 753.696C771.78 753.272 771.888 752.908 772.104 752.604C772.328 752.3 772.644 752.068 773.052 751.908C773.46 751.74 773.948 751.656 774.516 751.656ZM774.516 752.688C774.196 752.688 773.932 752.776 773.724 752.952C773.516 753.128 773.412 753.372 773.412 753.684C773.412 753.996 773.516 754.244 773.724 754.428C773.932 754.604 774.196 754.692 774.516 754.692C774.836 754.692 775.096 754.604 775.296 754.428C775.504 754.244 775.608 753.996 775.608 753.684C775.608 753.372 775.504 753.128 775.296 752.952C775.096 752.776 774.836 752.688 774.516 752.688ZM782.062 753.948C782.062 753.604 781.962 753.336 781.762 753.144C781.57 752.952 781.314 752.856 780.994 752.856C780.698 752.856 780.438 752.932 780.214 753.084C779.99 753.236 779.826 753.488 779.722 753.84L778.318 753.408C778.454 752.88 778.75 752.456 779.206 752.136C779.67 751.816 780.29 751.656 781.066 751.656C781.594 751.656 782.054 751.74 782.446 751.908C782.838 752.068 783.142 752.312 783.358 752.64C783.582 752.968 783.694 753.38 783.694 753.876V756.312C783.694 756.616 783.838 756.768 784.126 756.768C784.262 756.768 784.39 756.748 784.51 756.708L784.414 757.728C784.206 757.832 783.946 757.884 783.634 757.884C783.354 757.884 783.102 757.836 782.878 757.74C782.654 757.644 782.478 757.5 782.35 757.308C782.222 757.108 782.158 756.86 782.158 756.564V756.516L782.446 756.468C782.398 756.772 782.266 757.032 782.05 757.248C781.834 757.456 781.57 757.616 781.258 757.728C780.954 757.84 780.638 757.896 780.31 757.896C779.902 757.896 779.55 757.836 779.254 757.716C778.958 757.588 778.73 757.404 778.57 757.164C778.41 756.924 778.33 756.628 778.33 756.276C778.33 755.828 778.474 755.464 778.762 755.184C779.05 754.896 779.462 754.7 779.998 754.596L782.254 754.14L782.242 755.16L780.802 755.448C780.53 755.504 780.322 755.58 780.178 755.676C780.042 755.764 779.974 755.912 779.974 756.12C779.974 756.32 780.046 756.472 780.19 756.576C780.342 756.68 780.522 756.732 780.73 756.732C780.898 756.732 781.062 756.712 781.222 756.672C781.382 756.632 781.526 756.568 781.654 756.48C781.782 756.392 781.882 756.272 781.954 756.12C782.026 755.968 782.062 755.784 782.062 755.568V753.948ZM789.061 757.896C788.693 757.896 788.357 757.82 788.053 757.668C787.757 757.508 787.509 757.292 787.309 757.02C787.117 756.74 786.985 756.428 786.913 756.084L787.081 755.868L786.985 757.776H785.533V749.148H787.177V753.468L787.021 753.216C787.149 752.768 787.393 752.396 787.753 752.1C788.113 751.804 788.565 751.656 789.109 751.656C789.581 751.656 790.009 751.78 790.393 752.028C790.777 752.276 791.077 752.632 791.293 753.096C791.517 753.56 791.629 754.124 791.629 754.788C791.629 755.436 791.517 755.992 791.293 756.456C791.077 756.92 790.773 757.276 790.381 757.524C789.997 757.772 789.557 757.896 789.061 757.896ZM788.569 756.636C789.009 756.636 789.353 756.48 789.601 756.168C789.857 755.848 789.985 755.384 789.985 754.776C789.985 754.168 789.861 753.708 789.613 753.396C789.365 753.076 789.021 752.916 788.581 752.916C788.293 752.916 788.045 752.992 787.837 753.144C787.629 753.296 787.465 753.512 787.345 753.792C787.233 754.072 787.177 754.404 787.177 754.788C787.177 755.18 787.233 755.516 787.345 755.796C787.465 756.068 787.629 756.276 787.837 756.42C788.053 756.564 788.297 756.636 788.569 756.636ZM795.84 757.896C795.208 757.896 794.656 757.772 794.184 757.524C793.72 757.276 793.36 756.92 793.104 756.456C792.848 755.992 792.72 755.432 792.72 754.776C792.72 754.12 792.848 753.56 793.104 753.096C793.36 752.632 793.716 752.276 794.172 752.028C794.636 751.78 795.164 751.656 795.756 751.656C796.364 751.656 796.88 751.78 797.304 752.028C797.728 752.268 798.052 752.6 798.276 753.024C798.5 753.44 798.612 753.916 798.612 754.452C798.612 754.612 798.608 754.764 798.6 754.908C798.592 755.052 798.58 755.18 798.564 755.292H793.776V754.152H797.844L797.052 754.44C797.052 753.936 796.936 753.548 796.704 753.276C796.48 753.004 796.16 752.868 795.744 752.868C795.44 752.868 795.176 752.94 794.952 753.084C794.736 753.228 794.572 753.444 794.46 753.732C794.348 754.012 794.292 754.368 794.292 754.8C794.292 755.224 794.352 755.576 794.472 755.856C794.6 756.128 794.776 756.332 795 756.468C795.232 756.604 795.508 756.672 795.828 756.672C796.18 756.672 796.464 756.604 796.68 756.468C796.896 756.332 797.064 756.144 797.184 755.904L798.492 756.408C798.364 756.72 798.168 756.988 797.904 757.212C797.648 757.436 797.34 757.608 796.98 757.728C796.628 757.84 796.248 757.896 795.84 757.896Z" fill="#2B2D34"/>
<path d="M1183.66 723.561C1183.51 724.073 1183.27 724.501 1182.94 724.845C1182.61 725.189 1182.23 725.445 1181.78 725.613C1181.33 725.781 1180.84 725.865 1180.3 725.865C1179.52 725.865 1178.84 725.701 1178.26 725.373C1177.69 725.045 1177.25 724.577 1176.94 723.969C1176.64 723.361 1176.49 722.633 1176.49 721.785C1176.49 720.937 1176.64 720.209 1176.94 719.601C1177.25 718.993 1177.69 718.525 1178.26 718.197C1178.84 717.869 1179.51 717.705 1180.28 717.705C1180.82 717.705 1181.31 717.781 1181.75 717.933C1182.19 718.077 1182.57 718.301 1182.87 718.605C1183.18 718.909 1183.41 719.293 1183.55 719.757L1182.05 720.393C1181.92 719.913 1181.71 719.573 1181.43 719.373C1181.15 719.165 1180.79 719.061 1180.35 719.061C1179.92 719.061 1179.54 719.165 1179.21 719.373C1178.89 719.581 1178.64 719.889 1178.47 720.297C1178.29 720.697 1178.2 721.193 1178.2 721.785C1178.2 722.369 1178.28 722.865 1178.44 723.273C1178.61 723.681 1178.85 723.989 1179.17 724.197C1179.49 724.405 1179.89 724.509 1180.35 724.509C1180.78 724.509 1181.15 724.393 1181.47 724.161C1181.79 723.929 1182.01 723.577 1182.14 723.105L1183.66 723.561ZM1188.33 721.917C1188.33 721.573 1188.23 721.305 1188.03 721.113C1187.83 720.921 1187.58 720.825 1187.26 720.825C1186.96 720.825 1186.7 720.901 1186.48 721.053C1186.25 721.205 1186.09 721.457 1185.99 721.809L1184.58 721.377C1184.72 720.849 1185.01 720.425 1185.47 720.105C1185.93 719.785 1186.55 719.625 1187.33 719.625C1187.86 719.625 1188.32 719.709 1188.71 719.877C1189.1 720.037 1189.41 720.281 1189.62 720.609C1189.85 720.937 1189.96 721.349 1189.96 721.845V724.281C1189.96 724.585 1190.1 724.737 1190.39 724.737C1190.53 724.737 1190.65 724.717 1190.77 724.677L1190.68 725.697C1190.47 725.801 1190.21 725.853 1189.9 725.853C1189.62 725.853 1189.37 725.805 1189.14 725.709C1188.92 725.613 1188.74 725.469 1188.61 725.277C1188.49 725.077 1188.42 724.829 1188.42 724.533V724.485L1188.71 724.437C1188.66 724.741 1188.53 725.001 1188.31 725.217C1188.1 725.425 1187.83 725.585 1187.52 725.697C1187.22 725.809 1186.9 725.865 1186.57 725.865C1186.17 725.865 1185.81 725.805 1185.52 725.685C1185.22 725.557 1184.99 725.373 1184.83 725.133C1184.67 724.893 1184.59 724.597 1184.59 724.245C1184.59 723.797 1184.74 723.433 1185.03 723.153C1185.31 722.865 1185.73 722.669 1186.26 722.565L1188.52 722.109L1188.51 723.129L1187.07 723.417C1186.79 723.473 1186.59 723.549 1186.44 723.645C1186.31 723.733 1186.24 723.881 1186.24 724.089C1186.24 724.289 1186.31 724.441 1186.45 724.545C1186.61 724.649 1186.79 724.701 1186.99 724.701C1187.16 724.701 1187.33 724.681 1187.49 724.641C1187.65 724.601 1187.79 724.537 1187.92 724.449C1188.05 724.361 1188.15 724.241 1188.22 724.089C1188.29 723.937 1188.33 723.753 1188.33 723.537V721.917ZM1191.8 725.745V719.745H1193.27L1193.33 720.825C1193.53 720.425 1193.8 720.125 1194.15 719.925C1194.5 719.725 1194.89 719.625 1195.31 719.625C1195.74 719.625 1196.13 719.725 1196.48 719.925C1196.83 720.125 1197.09 720.421 1197.27 720.813C1197.4 720.549 1197.57 720.329 1197.78 720.153C1198 719.977 1198.24 719.845 1198.5 719.757C1198.77 719.669 1199.04 719.625 1199.31 719.625C1199.7 719.625 1200.06 719.705 1200.38 719.865C1200.7 720.025 1200.96 720.265 1201.16 720.585C1201.35 720.905 1201.44 721.313 1201.44 721.809V725.745H1199.8V722.133C1199.8 721.693 1199.7 721.381 1199.51 721.197C1199.32 721.013 1199.07 720.921 1198.77 720.921C1198.53 720.921 1198.3 720.981 1198.1 721.101C1197.9 721.221 1197.74 721.401 1197.62 721.641C1197.5 721.873 1197.45 722.165 1197.45 722.517V725.745H1195.8V722.133C1195.8 721.693 1195.7 721.381 1195.5 721.197C1195.31 721.013 1195.06 720.921 1194.76 720.921C1194.55 720.921 1194.34 720.977 1194.14 721.089C1193.94 721.201 1193.77 721.377 1193.63 721.617C1193.5 721.857 1193.44 722.173 1193.44 722.565V725.745H1191.8ZM1203.14 728.265V719.745H1204.62L1204.72 721.653L1204.52 721.437C1204.59 721.085 1204.72 720.773 1204.92 720.501C1205.12 720.229 1205.37 720.017 1205.67 719.865C1205.98 719.705 1206.32 719.625 1206.69 719.625C1207.18 719.625 1207.62 719.749 1208 719.997C1208.38 720.245 1208.68 720.601 1208.9 721.065C1209.12 721.521 1209.24 722.077 1209.24 722.733C1209.24 723.389 1209.12 723.953 1208.9 724.425C1208.68 724.889 1208.37 725.245 1207.98 725.493C1207.59 725.741 1207.15 725.865 1206.66 725.865C1206.13 725.865 1205.69 725.717 1205.34 725.421C1204.99 725.125 1204.76 724.753 1204.63 724.305L1204.78 724.053V728.265H1203.14ZM1206.18 724.605C1206.62 724.605 1206.96 724.449 1207.21 724.137C1207.46 723.817 1207.59 723.353 1207.59 722.745C1207.59 722.137 1207.47 721.677 1207.22 721.365C1206.98 721.045 1206.64 720.885 1206.2 720.885C1205.92 720.885 1205.67 720.961 1205.46 721.113C1205.25 721.257 1205.08 721.469 1204.96 721.749C1204.84 722.021 1204.78 722.353 1204.78 722.745C1204.78 723.129 1204.84 723.461 1204.95 723.741C1205.06 724.021 1205.22 724.237 1205.43 724.389C1205.65 724.533 1205.9 724.605 1206.18 724.605ZM1212.75 725.865C1212.35 725.865 1211.99 725.793 1211.67 725.649C1211.35 725.505 1211.1 725.277 1210.9 724.965C1210.72 724.645 1210.63 724.233 1210.63 723.729V719.745H1212.27V723.333C1212.27 723.797 1212.37 724.121 1212.56 724.305C1212.75 724.481 1213.03 724.569 1213.39 724.569C1213.56 724.569 1213.72 724.541 1213.88 724.485C1214.04 724.421 1214.18 724.325 1214.3 724.197C1214.43 724.069 1214.53 723.905 1214.6 723.705C1214.67 723.497 1214.71 723.253 1214.71 722.973V719.745H1216.35V725.745H1214.89L1214.83 724.701C1214.63 725.101 1214.35 725.397 1214 725.589C1213.66 725.773 1213.24 725.865 1212.75 725.865ZM1220.48 725.865C1219.87 725.865 1219.32 725.757 1218.81 725.541C1218.32 725.325 1217.91 725.021 1217.6 724.629L1218.55 723.669C1218.74 723.957 1219 724.193 1219.32 724.377C1219.64 724.561 1220.02 724.653 1220.46 724.653C1220.77 724.653 1221.02 724.609 1221.2 724.521C1221.39 724.425 1221.49 724.277 1221.49 724.077C1221.49 723.949 1221.45 723.841 1221.36 723.753C1221.27 723.657 1221.09 723.581 1220.83 723.525L1219.77 723.309C1219.08 723.165 1218.58 722.949 1218.29 722.661C1218 722.365 1217.85 721.985 1217.85 721.521C1217.85 721.193 1217.95 720.885 1218.14 720.597C1218.34 720.309 1218.64 720.077 1219.03 719.901C1219.42 719.717 1219.91 719.625 1220.49 719.625C1221.09 719.625 1221.61 719.721 1222.05 719.913C1222.5 720.097 1222.85 720.373 1223.11 720.741L1222.13 721.701C1221.95 721.421 1221.72 721.209 1221.43 721.065C1221.15 720.913 1220.85 720.837 1220.54 720.837C1220.32 720.837 1220.13 720.861 1219.97 720.909C1219.81 720.957 1219.69 721.025 1219.61 721.113C1219.53 721.193 1219.49 721.297 1219.49 721.425C1219.49 721.553 1219.54 721.665 1219.65 721.761C1219.77 721.849 1219.97 721.925 1220.27 721.989L1221.49 722.241C1222.08 722.361 1222.51 722.565 1222.76 722.853C1223.02 723.133 1223.15 723.473 1223.15 723.873C1223.15 724.257 1223.04 724.601 1222.83 724.905C1222.63 725.201 1222.33 725.437 1221.93 725.613C1221.54 725.781 1221.06 725.865 1220.48 725.865ZM1231.71 717.705C1232.5 717.705 1233.17 717.869 1233.74 718.197C1234.31 718.525 1234.74 718.993 1235.05 719.601C1235.36 720.209 1235.52 720.937 1235.52 721.785C1235.52 722.633 1235.36 723.361 1235.05 723.969C1234.74 724.577 1234.31 725.045 1233.74 725.373C1233.17 725.701 1232.5 725.865 1231.71 725.865C1230.93 725.865 1230.25 725.701 1229.67 725.373C1229.1 725.045 1228.66 724.577 1228.35 723.969C1228.05 723.361 1227.9 722.633 1227.9 721.785C1227.9 720.937 1228.05 720.209 1228.35 719.601C1228.66 718.993 1229.1 718.525 1229.67 718.197C1230.25 717.869 1230.93 717.705 1231.71 717.705ZM1231.71 719.061C1231.26 719.061 1230.88 719.165 1230.57 719.373C1230.26 719.581 1230.02 719.889 1229.85 720.297C1229.69 720.697 1229.61 721.193 1229.61 721.785C1229.61 722.369 1229.69 722.865 1229.85 723.273C1230.02 723.681 1230.26 723.989 1230.57 724.197C1230.88 724.405 1231.26 724.509 1231.71 724.509C1232.15 724.509 1232.53 724.405 1232.84 724.197C1233.15 723.989 1233.39 723.681 1233.55 723.273C1233.72 722.865 1233.8 722.369 1233.8 721.785C1233.8 721.193 1233.72 720.697 1233.55 720.297C1233.39 719.889 1233.15 719.581 1232.84 719.373C1232.53 719.165 1232.15 719.061 1231.71 719.061ZM1239.7 716.997C1239.98 716.997 1240.23 717.029 1240.45 717.093C1240.68 717.149 1240.86 717.221 1240.97 717.309L1240.74 718.401C1240.65 718.345 1240.55 718.301 1240.44 718.269C1240.33 718.237 1240.2 718.221 1240.04 718.221C1239.73 718.221 1239.48 718.293 1239.3 718.437C1239.12 718.573 1239.02 718.809 1239.02 719.145V719.973L1239.1 720.297V725.745H1237.45V719.025C1237.45 718.689 1237.51 718.393 1237.62 718.137C1237.73 717.881 1237.89 717.669 1238.09 717.501C1238.29 717.333 1238.52 717.209 1238.8 717.129C1239.08 717.041 1239.38 716.997 1239.7 716.997ZM1240.92 719.745V720.969H1236.41V719.745H1240.92ZM1244.48 716.997C1244.76 716.997 1245.02 717.029 1245.24 717.093C1245.47 717.149 1245.64 717.221 1245.76 717.309L1245.53 718.401C1245.44 718.345 1245.34 718.301 1245.23 718.269C1245.12 718.237 1244.98 718.221 1244.83 718.221C1244.52 718.221 1244.27 718.293 1244.09 718.437C1243.9 718.573 1243.81 718.809 1243.81 719.145V719.973L1243.88 720.297V725.745H1242.24V719.025C1242.24 718.689 1242.3 718.393 1242.41 718.137C1242.52 717.881 1242.68 717.669 1242.88 717.501C1243.08 717.333 1243.31 717.209 1243.58 717.129C1243.86 717.041 1244.16 716.997 1244.48 716.997ZM1245.71 719.745V720.969H1241.2V719.745H1245.71ZM1247.52 718.881C1247.18 718.881 1246.92 718.809 1246.75 718.665C1246.58 718.513 1246.5 718.293 1246.5 718.005C1246.5 717.709 1246.58 717.489 1246.75 717.345C1246.92 717.193 1247.18 717.117 1247.52 717.117C1247.86 717.117 1248.12 717.193 1248.29 717.345C1248.46 717.489 1248.54 717.709 1248.54 718.005C1248.54 718.293 1248.46 718.513 1248.29 718.665C1248.12 718.809 1247.86 718.881 1247.52 718.881ZM1248.34 719.745V725.745H1246.69V719.745H1248.34ZM1252.8 719.625C1253.33 719.625 1253.79 719.705 1254.15 719.865C1254.53 720.017 1254.83 720.229 1255.05 720.501C1255.29 720.765 1255.45 721.061 1255.55 721.389L1254.01 721.941C1253.93 721.581 1253.79 721.309 1253.6 721.125C1253.41 720.941 1253.15 720.849 1252.82 720.849C1252.52 720.849 1252.26 720.921 1252.04 721.065C1251.83 721.201 1251.66 721.413 1251.55 721.701C1251.44 721.981 1251.38 722.333 1251.38 722.757C1251.38 723.181 1251.44 723.533 1251.55 723.813C1251.67 724.093 1251.84 724.301 1252.05 724.437C1252.28 724.573 1252.54 724.641 1252.83 724.641C1253.07 724.641 1253.28 724.601 1253.45 724.521C1253.61 724.433 1253.75 724.309 1253.85 724.149C1253.97 723.989 1254.04 723.797 1254.08 723.573L1255.57 724.053C1255.48 724.413 1255.32 724.729 1255.08 725.001C1254.84 725.273 1254.53 725.485 1254.15 725.637C1253.78 725.789 1253.34 725.865 1252.85 725.865C1252.23 725.865 1251.69 725.741 1251.21 725.493C1250.74 725.245 1250.38 724.889 1250.12 724.425C1249.87 723.961 1249.74 723.401 1249.74 722.745C1249.74 722.089 1249.87 721.529 1250.12 721.065C1250.38 720.601 1250.74 720.245 1251.2 719.997C1251.67 719.749 1252.2 719.625 1252.8 719.625ZM1259.63 725.865C1259 725.865 1258.45 725.741 1257.98 725.493C1257.51 725.245 1257.15 724.889 1256.9 724.425C1256.64 723.961 1256.51 723.401 1256.51 722.745C1256.51 722.089 1256.64 721.529 1256.9 721.065C1257.15 720.601 1257.51 720.245 1257.96 719.997C1258.43 719.749 1258.96 719.625 1259.55 719.625C1260.16 719.625 1260.67 719.749 1261.1 719.997C1261.52 720.237 1261.84 720.569 1262.07 720.993C1262.29 721.409 1262.4 721.885 1262.4 722.421C1262.4 722.581 1262.4 722.733 1262.39 722.877C1262.38 723.021 1262.37 723.149 1262.36 723.261H1257.57V722.121H1261.64L1260.84 722.409C1260.84 721.905 1260.73 721.517 1260.5 721.245C1260.27 720.973 1259.95 720.837 1259.54 720.837C1259.23 720.837 1258.97 720.909 1258.74 721.053C1258.53 721.197 1258.36 721.413 1258.25 721.701C1258.14 721.981 1258.08 722.337 1258.08 722.769C1258.08 723.193 1258.14 723.545 1258.26 723.825C1258.39 724.097 1258.57 724.301 1258.79 724.437C1259.02 724.573 1259.3 724.641 1259.62 724.641C1259.97 724.641 1260.26 724.573 1260.47 724.437C1260.69 724.301 1260.86 724.113 1260.98 723.873L1262.28 724.377C1262.16 724.689 1261.96 724.957 1261.7 725.181C1261.44 725.405 1261.13 725.577 1260.77 725.697C1260.42 725.809 1260.04 725.865 1259.63 725.865Z" fill="#2B2D34"/>
<path d="M372.791 792.899C372.791 806.499 361.767 817.524 348.167 817.524C334.568 817.524 323.543 806.499 323.543 792.899C323.543 786.611 324.763 782.463 326.569 779.739C328.36 777.039 330.792 775.642 333.439 774.971C336.114 774.293 339 774.36 341.634 774.616C342.715 774.722 343.735 774.857 344.679 774.981C344.884 775.008 345.084 775.035 345.282 775.061C346.364 775.202 347.37 775.322 348.167 775.322C348.956 775.322 349.957 775.214 351.038 775.089C351.178 775.073 351.32 775.056 351.463 775.039C352.454 774.924 353.535 774.798 354.682 774.708C357.314 774.501 360.203 774.491 362.883 775.208C365.538 775.918 367.975 777.338 369.768 780.013C371.574 782.708 372.791 786.776 372.791 792.899Z" fill="#A4EB5D" stroke="#2B2D34" stroke-width="2"/>
<path d="M337.636 759.025C337.636 758.473 338.084 758.025 338.636 758.025H339.448C344.419 758.025 348.448 762.055 348.448 767.025V767.838C348.448 768.39 348.001 768.838 347.448 768.838H346.636C341.666 768.838 337.636 764.808 337.636 759.838V759.025Z" fill="#A4EB5D" stroke="#2B2D34" stroke-width="2" stroke-linejoin="round"/>
<path d="M1252.2 1035.05C1252.48 1035.05 1252.7 1034.82 1252.7 1034.55V1031.7C1252.7 1031.43 1252.93 1031.2 1253.2 1031.2H1257.32C1257.59 1031.2 1257.82 1030.98 1257.82 1030.71L1257.83 1027.86C1257.83 1027.58 1258.05 1027.36 1258.33 1027.36H1262.45C1262.73 1027.36 1262.95 1027.14 1262.95 1026.86V1024.02C1262.95 1023.74 1263.18 1023.52 1263.45 1023.52H1270.14C1270.42 1023.52 1270.64 1023.74 1270.64 1024.02V1026.86C1270.64 1027.14 1270.42 1027.36 1270.14 1027.36H1266.01C1265.74 1027.36 1265.51 1027.59 1265.51 1027.86V1030.7C1265.51 1030.98 1265.29 1031.2 1265.01 1031.2H1260.89C1260.61 1031.2 1260.39 1031.43 1260.39 1031.7V1034.55C1260.39 1034.82 1260.17 1035.05 1259.89 1035.05H1255.77C1255.49 1035.05 1255.27 1035.27 1255.27 1035.55V1038.39C1255.27 1038.67 1255.04 1038.89 1254.77 1038.89H1251.92C1251.65 1038.89 1251.42 1039.12 1251.42 1039.39V1042.24C1251.42 1042.51 1251.2 1042.74 1250.92 1042.74H1244.23C1243.96 1042.74 1243.73 1042.51 1243.73 1042.24V1039.39C1243.73 1039.12 1243.96 1038.89 1244.23 1038.89H1247.08C1247.35 1038.89 1247.58 1038.67 1247.58 1038.39V1035.55C1247.58 1035.27 1247.8 1035.05 1248.08 1035.05H1252.2Z" fill="#2B2D34"/>
<path d="M1250.14 1031.2L1252.7 1024.8V1016.47M1252.7 1016.47L1257.83 1019.03L1259.75 1024.16M1252.7 1016.47L1253.98 1008.78M1253.98 1008.78L1257.83 1012.63L1261.67 1011.35M1253.98 1008.78L1249.5 1010.06L1247.58 1015.19" stroke="#2B2D34" stroke-width="3" stroke-linecap="round" stroke-linejoin="round"/>
<ellipse cx="1254.62" cy="1002.38" rx="3.20303" ry="3.20303" fill="#2B2D34"/>
<circle cx="572.379" cy="1049.14" r="14.3745" fill="#F9CB48" stroke="#2B2D34" stroke-width="2"/>
<path d="M567.347 1046.88V1046.1H572.783L572.519 1046.88H567.347ZM567.347 1048.51V1047.72H572.291L572.051 1048.51H567.347ZM571.835 1043.13C572.347 1043.13 572.803 1043.21 573.203 1043.35C573.611 1043.49 573.955 1043.71 574.235 1043.99C574.523 1044.27 574.731 1044.61 574.859 1045.01L573.587 1045.58C573.491 1045.17 573.291 1044.87 572.987 1044.67C572.691 1044.46 572.335 1044.36 571.919 1044.36C571.463 1044.36 571.079 1044.47 570.767 1044.69C570.455 1044.91 570.215 1045.23 570.047 1045.67C569.887 1046.09 569.807 1046.61 569.807 1047.21C569.807 1048.12 569.975 1048.82 570.311 1049.33C570.655 1049.82 571.191 1050.07 571.919 1050.07C572.359 1050.07 572.723 1049.96 573.011 1049.73C573.307 1049.5 573.511 1049.15 573.623 1048.69L574.943 1049.11C574.815 1049.58 574.607 1049.98 574.319 1050.31C574.031 1050.64 573.679 1050.89 573.263 1051.05C572.847 1051.21 572.379 1051.29 571.859 1051.29C571.107 1051.29 570.463 1051.13 569.927 1050.8C569.391 1050.47 568.979 1050.01 568.691 1049.4C568.411 1048.79 568.271 1048.06 568.271 1047.21C568.271 1046.37 568.419 1045.64 568.715 1045.03C569.011 1044.42 569.427 1043.95 569.963 1043.63C570.499 1043.3 571.123 1043.13 571.835 1043.13Z" fill="#2B2D34"/>
<rect x="565.997" y="1058.74" width="45.4049" height="24.9055" rx="2" transform="rotate(-22.3454 565.997 1058.74)" fill="#8FC9FF" stroke="#2B2D34" stroke-width="2"/>
<path d="M583.511 1059.56L585.519 1064.44L584.394 1064.9L583.473 1062.66L582.892 1061.15L582.877 1061.15L583.21 1065.39L582.182 1065.81L579.437 1062.57L579.422 1062.57L580.076 1064.06L580.998 1066.3L579.866 1066.77L577.858 1061.88L579.671 1061.14L581.463 1063.31L582.162 1064.23L582.177 1064.22L582.035 1063.08L581.773 1060.27L583.511 1059.56ZM588.326 1063.37C587.916 1063.54 587.53 1063.61 587.166 1063.58C586.807 1063.55 586.487 1063.43 586.207 1063.21C585.927 1062.99 585.703 1062.68 585.537 1062.27C585.371 1061.87 585.31 1061.49 585.355 1061.14C585.401 1060.78 585.537 1060.47 585.765 1060.2C585.999 1059.92 586.305 1059.71 586.685 1059.55C587.074 1059.39 587.436 1059.33 587.771 1059.37C588.108 1059.41 588.402 1059.53 588.655 1059.74C588.906 1059.94 589.101 1060.21 589.241 1060.55C589.277 1060.64 589.311 1060.73 589.343 1060.82C589.374 1060.91 589.397 1060.99 589.412 1061.05L586.482 1062.26L586.205 1061.58L588.58 1060.61L588.075 1061.08C587.953 1060.79 587.806 1060.58 587.632 1060.47C587.464 1060.35 587.269 1060.34 587.047 1060.43C586.889 1060.5 586.768 1060.59 586.685 1060.71C586.607 1060.83 586.571 1060.98 586.577 1061.16C586.587 1061.34 586.643 1061.56 586.745 1061.8C586.844 1062.04 586.957 1062.23 587.084 1062.35C587.209 1062.48 587.345 1062.55 587.492 1062.57C587.637 1062.58 587.793 1062.56 587.961 1062.49C588.148 1062.41 588.281 1062.31 588.359 1062.19C588.442 1062.07 588.483 1061.93 588.483 1061.78L589.626 1061.7C589.644 1061.94 589.597 1062.17 589.485 1062.39C589.376 1062.6 589.219 1062.79 589.012 1062.96C588.811 1063.13 588.582 1063.27 588.326 1063.37ZM590.775 1062.28L589.254 1058.58L590.379 1058.12L590.968 1059.37L590.77 1059.28C590.71 1059 590.705 1058.74 590.755 1058.51C590.81 1058.28 590.914 1058.08 591.065 1057.92C591.218 1057.74 591.414 1057.61 591.65 1057.51C591.907 1057.41 592.149 1057.36 592.377 1057.38C592.61 1057.4 592.82 1057.49 593.008 1057.64C593.196 1057.78 593.349 1058 593.469 1058.29L594.482 1060.76L593.224 1061.27L592.348 1059.14C592.242 1058.89 592.12 1058.73 591.981 1058.67C591.842 1058.61 591.696 1058.62 591.543 1058.68C591.424 1058.73 591.325 1058.8 591.246 1058.9C591.165 1059 591.12 1059.12 591.112 1059.27C591.103 1059.42 591.141 1059.6 591.227 1059.8L592.033 1061.76L590.775 1062.28ZM596.947 1059.83C596.577 1059.98 596.208 1060.07 595.838 1060.08C595.472 1060.09 595.139 1060.02 594.838 1059.88L595.144 1058.94C595.332 1059.04 595.55 1059.11 595.797 1059.14C596.047 1059.15 596.297 1059.11 596.549 1059.01C596.702 1058.95 596.818 1058.87 596.899 1058.79C596.979 1058.7 597 1058.61 596.962 1058.52C596.933 1058.45 596.886 1058.41 596.821 1058.39C596.753 1058.36 596.639 1058.37 596.479 1058.4L595.919 1058.51C595.416 1058.6 595.029 1058.6 594.757 1058.5C594.487 1058.39 594.291 1058.19 594.167 1057.89C594.084 1057.68 594.067 1057.47 594.115 1057.23C594.161 1056.99 594.289 1056.77 594.499 1056.55C594.707 1056.32 595.011 1056.13 595.41 1055.97C595.785 1055.81 596.138 1055.73 596.469 1055.72C596.799 1055.71 597.091 1055.78 597.344 1055.91L597.024 1056.84C596.845 1056.74 596.645 1056.69 596.423 1056.68C596.201 1056.68 595.996 1056.71 595.809 1056.79C595.69 1056.84 595.594 1056.89 595.521 1056.95C595.45 1057 595.403 1057.06 595.379 1057.11C595.356 1057.17 595.357 1057.22 595.381 1057.28C595.407 1057.35 595.46 1057.39 595.54 1057.42C595.622 1057.43 595.754 1057.43 595.936 1057.39L596.664 1057.25C597.073 1057.16 597.398 1057.17 597.641 1057.29C597.884 1057.4 598.058 1057.59 598.163 1057.84C598.262 1058.09 598.287 1058.33 598.238 1058.57C598.189 1058.82 598.06 1059.05 597.85 1059.27C597.638 1059.48 597.337 1059.67 596.947 1059.83ZM600.409 1055.58C600.338 1055.41 600.233 1055.29 600.093 1055.23C599.957 1055.17 599.808 1055.17 599.645 1055.24C599.482 1055.3 599.359 1055.4 599.275 1055.54C599.194 1055.66 599.174 1055.84 599.214 1056.06L598.045 1056.25C597.968 1055.86 598.034 1055.51 598.243 1055.17C598.452 1054.84 598.825 1054.56 599.363 1054.34C599.723 1054.19 600.051 1054.12 600.347 1054.13C600.646 1054.12 600.906 1054.2 601.126 1054.36C601.35 1054.51 601.524 1054.74 601.65 1055.04L602.207 1056.4C602.286 1056.59 602.412 1056.65 602.584 1056.58C602.673 1056.54 602.74 1056.5 602.787 1056.46L603.008 1057.21C602.888 1057.34 602.722 1057.45 602.51 1057.54C602.318 1057.61 602.135 1057.66 601.963 1057.66C601.789 1057.65 601.634 1057.61 601.5 1057.52C601.363 1057.42 601.255 1057.28 601.176 1057.09L601.158 1057.04L601.277 1056.94C601.364 1057.15 601.373 1057.35 601.304 1057.55C601.239 1057.74 601.12 1057.91 600.946 1058.07C600.777 1058.22 600.584 1058.34 600.367 1058.43C600.116 1058.53 599.88 1058.58 599.66 1058.58C599.44 1058.58 599.248 1058.52 599.084 1058.42C598.922 1058.3 598.796 1058.14 598.705 1057.91C598.595 1057.65 598.584 1057.4 598.671 1057.16C598.76 1056.91 598.964 1056.69 599.281 1056.48L600.56 1055.61L600.827 1056.28L600.177 1056.72C600.042 1056.81 599.949 1056.9 599.899 1056.99C599.852 1057.07 599.852 1057.17 599.899 1057.29C599.944 1057.39 600.016 1057.46 600.118 1057.48C600.219 1057.5 600.324 1057.49 600.432 1057.45C600.516 1057.41 600.59 1057.37 600.654 1057.31C600.723 1057.26 600.777 1057.19 600.815 1057.12C600.852 1057.04 600.872 1056.95 600.874 1056.86C600.876 1056.77 600.855 1056.66 600.81 1056.56L600.409 1055.58Z" fill="#2B2D34"/>
<circle cx="842.715" cy="897.959" r="14.3745" fill="#F9CB48" stroke="#2B2D34" stroke-width="2"/>
<path d="M837.683 895.694V894.914H843.119L842.855 895.694H837.683ZM837.683 897.326V896.534H842.627L842.387 897.326H837.683ZM842.171 891.95C842.683 891.95 843.139 892.022 843.539 892.166C843.947 892.31 844.291 892.522 844.571 892.802C844.859 893.082 845.067 893.422 845.195 893.822L843.923 894.398C843.827 893.99 843.627 893.686 843.323 893.486C843.027 893.278 842.671 893.174 842.255 893.174C841.799 893.174 841.415 893.286 841.103 893.51C840.791 893.726 840.551 894.05 840.383 894.482C840.223 894.906 840.143 895.422 840.143 896.03C840.143 896.934 840.311 897.638 840.647 898.142C840.991 898.638 841.527 898.886 842.255 898.886C842.695 898.886 843.059 898.774 843.347 898.55C843.643 898.318 843.847 897.97 843.959 897.506L845.279 897.926C845.151 898.398 844.943 898.798 844.655 899.126C844.367 899.454 844.015 899.702 843.599 899.87C843.183 900.03 842.715 900.11 842.195 900.11C841.443 900.11 840.799 899.946 840.263 899.618C839.727 899.29 839.315 898.822 839.027 898.214C838.747 897.606 838.607 896.878 838.607 896.03C838.607 895.182 838.755 894.454 839.051 893.846C839.347 893.238 839.763 892.77 840.299 892.442C840.835 892.114 841.459 891.95 842.171 891.95Z" fill="#2B2D34"/>
<rect x="836.333" y="907.558" width="45.4049" height="24.9055" rx="2" transform="rotate(-22.3454 836.333 907.558)" fill="#8FC9FF" stroke="#2B2D34" stroke-width="2"/>
<path d="M853.847 908.376L855.854 913.259L854.73 913.721L853.808 911.479L853.228 909.962L853.213 909.968L853.546 914.208L852.517 914.631L849.772 911.383L849.758 911.389L850.412 912.876L851.334 915.117L850.201 915.583L848.194 910.699L850.007 909.954L851.798 912.124L852.498 913.047L852.513 913.041L852.371 911.897L852.108 909.09L853.847 908.376ZM858.661 912.192C858.252 912.36 857.865 912.43 857.501 912.4C857.143 912.369 856.823 912.244 856.543 912.025C856.262 911.806 856.039 911.494 855.873 911.089C855.706 910.685 855.646 910.306 855.691 909.953C855.736 909.6 855.873 909.287 856.101 909.015C856.334 908.74 856.641 908.525 857.02 908.369C857.41 908.208 857.772 908.149 858.106 908.19C858.443 908.225 858.738 908.346 858.991 908.553C859.241 908.756 859.436 909.028 859.576 909.368C859.613 909.457 859.647 909.546 859.678 909.637C859.71 909.728 859.733 909.805 859.747 909.868L856.817 911.073L856.541 910.4L858.916 909.423L858.411 909.899C858.289 909.603 858.142 909.398 857.968 909.285C857.8 909.17 857.604 909.158 857.382 909.249C857.225 909.314 857.104 909.407 857.021 909.527C856.943 909.646 856.907 909.796 856.912 909.979C856.923 910.159 856.979 910.372 857.08 910.619C857.18 910.86 857.293 911.045 857.42 911.171C857.545 911.293 857.681 911.364 857.828 911.384C857.972 911.4 858.129 911.373 858.296 911.304C858.484 911.227 858.617 911.129 858.695 911.01C858.778 910.89 858.819 910.752 858.818 910.596L859.962 910.516C859.98 910.756 859.933 910.986 859.821 911.205C859.712 911.417 859.555 911.608 859.348 911.78C859.147 911.949 858.918 912.086 858.661 912.192ZM861.11 911.099L859.59 907.399L860.714 906.937L861.304 908.182L861.106 908.099C861.045 907.813 861.041 907.555 861.091 907.327C861.146 907.097 861.249 906.898 861.4 906.733C861.554 906.56 861.749 906.425 861.986 906.327C862.243 906.222 862.485 906.18 862.713 906.202C862.946 906.221 863.156 906.305 863.344 906.453C863.531 906.6 863.685 906.82 863.805 907.111L864.817 909.575L863.56 910.092L862.684 907.961C862.578 907.704 862.456 907.547 862.317 907.489C862.177 907.431 862.031 907.433 861.878 907.496C861.76 907.545 861.661 907.62 861.582 907.722C861.501 907.819 861.456 907.941 861.447 908.089C861.439 908.236 861.477 908.414 861.562 908.621L862.368 910.582L861.11 911.099ZM867.283 908.648C866.913 908.8 866.543 908.883 866.174 908.896C865.808 908.902 865.474 908.835 865.174 908.693L865.48 907.754C865.668 907.861 865.886 907.928 866.133 907.953C866.382 907.971 866.633 907.929 866.885 907.826C867.037 907.763 867.154 907.689 867.235 907.604C867.315 907.519 867.336 907.43 867.297 907.336C867.269 907.267 867.222 907.223 867.156 907.204C867.089 907.179 866.975 907.183 866.815 907.214L866.254 907.323C865.752 907.42 865.365 907.418 865.092 907.317C864.823 907.208 864.626 907.004 864.503 906.703C864.42 906.501 864.402 906.283 864.451 906.05C864.497 905.811 864.625 905.583 864.835 905.364C865.043 905.14 865.346 904.946 865.746 904.782C866.121 904.628 866.474 904.546 866.804 904.537C867.135 904.528 867.427 904.593 867.68 904.731L867.36 905.658C867.181 905.559 866.98 905.506 866.758 905.499C866.537 905.492 866.332 905.527 866.144 905.604C866.026 905.653 865.93 905.707 865.856 905.766C865.785 905.818 865.738 905.872 865.715 905.928C865.692 905.983 865.692 906.041 865.717 906.1C865.743 906.164 865.796 906.209 865.876 906.234C865.958 906.252 866.09 906.244 866.272 906.209L867 906.066C867.408 905.978 867.734 905.992 867.976 906.105C868.219 906.219 868.393 906.404 868.499 906.66C868.598 906.902 868.623 907.145 868.574 907.391C868.525 907.636 868.395 907.868 868.185 908.087C867.974 908.301 867.673 908.488 867.283 908.648ZM870.744 904.397C870.673 904.224 870.568 904.109 870.429 904.051C870.293 903.985 870.143 903.986 869.98 904.053C869.818 904.12 869.694 904.22 869.61 904.352C869.529 904.478 869.509 904.654 869.55 904.879L868.381 905.065C868.304 904.682 868.37 904.323 868.579 903.989C868.788 903.656 869.161 903.378 869.699 903.157C870.059 903.009 870.387 902.938 870.683 902.943C870.982 902.941 871.242 903.019 871.462 903.176C871.685 903.326 871.86 903.555 871.986 903.86L872.542 905.214C872.621 905.407 872.747 905.468 872.92 905.397C873.009 905.36 873.076 905.321 873.122 905.279L873.343 906.027C873.224 906.157 873.058 906.265 872.846 906.353C872.653 906.432 872.471 906.472 872.299 906.474C872.124 906.47 871.97 906.424 871.835 906.335C871.699 906.242 871.591 906.099 871.512 905.906L871.494 905.862L871.613 905.752C871.7 905.964 871.709 906.168 871.64 906.364C871.575 906.558 871.456 906.731 871.282 906.883C871.113 907.033 870.92 907.153 870.703 907.242C870.451 907.345 870.216 907.396 869.996 907.394C869.776 907.392 869.584 907.339 869.419 907.233C869.258 907.121 869.131 906.954 869.04 906.732C868.931 906.466 868.919 906.214 869.006 905.976C869.096 905.732 869.299 905.504 869.616 905.293L870.896 904.429L871.163 905.098L870.513 905.538C870.377 905.629 870.284 905.719 870.235 905.808C870.188 905.891 870.188 905.989 870.235 906.103C870.279 906.211 870.352 906.276 870.453 906.298C870.555 906.32 870.659 906.308 870.768 906.264C870.852 906.229 870.926 906.185 870.99 906.13C871.058 906.072 871.112 906.007 871.151 905.933C871.188 905.855 871.208 905.769 871.21 905.676C871.212 905.583 871.19 905.482 871.146 905.373L870.744 904.397Z" fill="#2B2D34"/>
</svg>
