<svg width="1500" height="1650" viewBox="0 0 1500 1650" fill="none" xmlns="http://www.w3.org/2000/svg">
<rect width="1500" height="1650" fill="white"/>
<path d="M335 533V1583.5C335 1586.26 337.239 1588.5 340 1588.5H1159C1161.76 1588.5 1164 1586.26 1164 1583.5V739C1164 736.239 1161.76 734 1159 734H1130C1127.24 734 1125 731.761 1125 729V66.5C1125 63.7386 1122.76 61.5 1120 61.5H430C427.239 61.5 425 63.7386 425 66.5V528H340C337.239 528 335 530.239 335 533Z" fill="#E0E3FF" stroke="#2B2D34" stroke-width="3"/>
<path d="M908 474H425V66.5C425 63.7386 427.239 61.5 430 61.5H961.5V169.5C961.5 172.261 959.261 174.5 956.5 174.5H913C910.239 174.5 908 176.739 908 179.5V441.5C908 444.261 910.239 446.5 913 446.5H956.5C959.261 446.5 961.5 448.739 961.5 451.5V469C961.5 471.761 959.261 474 956.5 474H908Z" fill="white" stroke="#2B2D34" stroke-width="3"/>
<path d="M959 734H1156H1159C1161.76 734 1164 736.239 1164 739V1583.36C1164 1586.12 1161.76 1588.36 1159 1588.36H954V739C954 736.239 956.239 734 959 734Z" fill="white" stroke="#2B2D34" stroke-width="3"/>
<path d="M918 1444V1588.5H662V1444C662 1441.24 664.239 1439 667 1439H913C915.761 1439 918 1441.24 918 1444Z" fill="#EDEDED" stroke="#2B2D34" stroke-width="3"/>
<path d="M619 1435.5V1588.5H340C337.239 1588.5 335 1586.26 335 1583.5V533C335 530.239 337.239 528 340 528H600C602.761 528 605 530.239 605 533V571.5C605 574.261 607.239 576.5 610 576.5H614C616.761 576.5 619 578.739 619 581.5V692.5C619 695.261 616.761 697.5 614 697.5H610C607.239 697.5 605 699.739 605 702.5V782C605 784.761 607.239 787 610 787H614C616.761 787 619 789.239 619 792V904.5C619 907.261 616.761 909.5 614 909.5H610C607.239 909.5 605 911.739 605 914.5V997.5C605 1000.26 607.239 1002.5 610 1002.5H614C616.761 1002.5 619 1004.74 619 1007.5V1118.5C619 1121.26 616.761 1123.5 614 1123.5H610C607.239 1123.5 605 1125.74 605 1128.5V1212.5C605 1215.26 607.239 1217.5 610 1217.5H614C616.761 1217.5 619 1219.74 619 1222.5V1331C619 1333.76 616.761 1336 614 1336H610C607.239 1336 605 1338.24 605 1341V1425.5C605 1428.26 607.239 1430.5 610 1430.5H614C616.761 1430.5 619 1432.74 619 1435.5Z" fill="white" stroke="#2B2D34" stroke-width="3"/>
<path d="M1063 555.5V734H1125V550.5H1068C1065.24 550.5 1063 552.739 1063 555.5Z" fill="white" stroke="#2B2D34" stroke-width="3"/>
<path d="M740 1383.5H867C869.761 1383.5 872 1381.26 872 1378.5V750C872 747.239 869.761 745 867 745H740C737.239 745 735 747.239 735 750V1378.5C735 1381.26 737.239 1383.5 740 1383.5Z" fill="#EDEDED" stroke="#2B2D34" stroke-width="3"/>
<rect x="782" y="1440.5" width="63" height="56" fill="white"/>
<path d="M605 1386.5H336.5M604.5 1169.5H335M604.5 955.5H335M604.5 740H335M782 1438.5V1497M782 1587.5V1497M782 1497H844.5M844.5 1438.5V1587.5M954 1382.5H1163.5M954 1166.5H1163M953 955.5H1163.5M953 928.5H1088.5C1091.26 928.5 1093.5 926.261 1093.5 923.5V862M953 793H1023.25M953 862H1093.5M1093.5 862V798C1093.5 795.239 1091.26 793 1088.5 793H1023.25M1023.25 793V734" stroke="#2B2D34"/>
<path d="M662.5 473.5V61" stroke="#2B2D34"/>
<path d="M852.5 473V439.5C852.5 436.739 850.261 434.5 847.5 434.5H717C714.239 434.5 712 436.739 712 439.5V473M613 473V439.5C613 436.739 610.761 434.5 608 434.5H487.5C484.739 434.5 482.5 436.739 482.5 439.5V473" stroke="#2B2D34"/>
<path d="M625 1588.5H655" stroke="#AEAEAE" stroke-width="3"/>
<path d="M921 1588.5H951" stroke="#AEAEAE" stroke-width="3"/>
<path d="M866 474H896" stroke="#AEAEAE" stroke-width="3"/>
<path d="M671 474H701" stroke="#AEAEAE" stroke-width="3"/>
<path d="M624 474H654" stroke="#AEAEAE" stroke-width="3"/>
<path d="M442 474H472" stroke="#AEAEAE" stroke-width="3"/>
<path d="M605 1421L605 1391" stroke="#AEAEAE" stroke-width="3"/>
<path d="M619 1571.5L619 1541.5" stroke="#AEAEAE" stroke-width="3"/>
<path d="M954 1436L954 1406" stroke="#AEAEAE" stroke-width="3"/>
<path d="M797 1439H827" stroke="#AEAEAE" stroke-width="3"/>
<path d="M954 1213L954 1183" stroke="#AEAEAE" stroke-width="3"/>
<path d="M954 1009L954 979" stroke="#AEAEAE" stroke-width="3"/>
<path d="M954 905L954 875" stroke="#AEAEAE" stroke-width="3"/>
<path d="M954 855.5L954 825.5" stroke="#AEAEAE" stroke-width="3"/>
<path d="M872 848.5L872 818.5" stroke="#AEAEAE" stroke-width="3"/>
<path d="M735 1243.5L735 1228" stroke="#AEAEAE" stroke-width="3"/>
<path d="M954 783L954 753" stroke="#AEAEAE" stroke-width="3"/>
<path d="M1063 692.5L1063 662.5" stroke="#AEAEAE" stroke-width="3"/>
<path d="M1125 625.5V581" stroke="#AEAEAE" stroke-width="3"/>
<path d="M1063 625.5V581" stroke="#AEAEAE" stroke-width="3"/>
<path d="M1125 696.5L1125 666.5" stroke="#AEAEAE" stroke-width="3"/>
<path d="M605 1381L605 1351" stroke="#AEAEAE" stroke-width="3"/>
<path d="M605 1204L605 1174" stroke="#AEAEAE" stroke-width="3"/>
<path d="M605 1166L605 1136" stroke="#AEAEAE" stroke-width="3"/>
<path d="M605 989L605 959" stroke="#AEAEAE" stroke-width="3"/>
<path d="M605 952L605 922" stroke="#AEAEAE" stroke-width="3"/>
<path d="M605 773L605 743" stroke="#AEAEAE" stroke-width="3"/>
<path d="M605 736L605 706" stroke="#AEAEAE" stroke-width="3"/>
<path d="M605 565L605 535" stroke="#AEAEAE" stroke-width="3"/>
<path d="M425 513L425 483" stroke="#AEAEAE" stroke-width="3"/>
<circle cx="983" cy="809.444" r="4.44443" fill="#2B2D34"/>
<rect x="978.556" y="830.828" width="3.55555" height="19.5555" rx="1.77777" fill="#2B2D34"/>
<rect x="975" y="817.879" width="3.23491" height="16.4571" rx="1.61745" fill="#2B2D34"/>
<rect x="987.855" y="817.879" width="3.14463" height="16.4571" rx="1.57232" fill="#2B2D34"/>
<rect x="983.889" y="830.828" width="3.55555" height="19.5555" rx="1.77777" fill="#2B2D34"/>
<path d="M975 817.323C975 815.666 976.343 814.323 978 814.323H988C989.657 814.323 991 815.666 991 817.323V820.745H975V817.323Z" fill="#2B2D34"/>
<rect x="978.556" y="817.879" width="8.88886" height="15.0716" fill="#2B2D34"/>
<path d="M960 405C960 415.493 951.493 424 941 424C930.507 424 922 415.493 922 405C922 400.118 922.948 396.927 924.326 394.85C925.688 392.796 927.535 391.732 929.558 391.219C931.609 390.699 933.832 390.749 935.88 390.948C936.719 391.03 937.511 391.135 938.247 391.232C938.407 391.253 938.565 391.274 938.719 391.294C939.562 391.404 940.361 391.5 941 391.5C941.631 391.5 942.425 391.414 943.266 391.317C943.375 391.304 943.486 391.291 943.598 391.278C944.372 391.188 945.211 391.09 946.102 391.02C948.147 390.859 950.373 390.853 952.429 391.404C954.46 391.947 956.313 393.029 957.677 395.064C959.055 397.12 960 400.248 960 405Z" fill="#A4EB5D" stroke="#2B2D34" stroke-width="2"/>
<path d="M933 378.667C933 378.298 933.298 378 933.667 378C937.717 378 941 381.283 941 385.333C941 385.702 940.702 386 940.333 386C936.283 386 933 382.717 933 378.667Z" fill="#A4EB5D" stroke="#2B2D34" stroke-width="2" stroke-linejoin="round"/>
<circle cx="981.5" cy="879.423" r="4.42292" fill="#2B2D34"/>
<rect x="977.077" y="900.703" width="3.53834" height="19.4608" rx="1.76917" fill="#2B2D34"/>
<rect x="982.385" y="900.703" width="3.53834" height="19.4608" rx="1.76917" fill="#2B2D34"/>
<path d="M977.077 887.384H985.923L989.461 906.845H973.539L977.077 887.384Z" fill="#2B2D34"/>
<path fill-rule="evenodd" clip-rule="evenodd" d="M972.922 889.635C973.512 887.273 975.635 885.615 978.071 885.615H984.929C987.365 885.615 989.488 887.273 990.078 889.635L992.947 901.108C993.184 902.056 992.607 903.017 991.66 903.254C990.712 903.491 989.751 902.915 989.514 901.967L986.646 890.493C986.449 889.706 985.741 889.153 984.929 889.153H978.071C977.259 889.153 976.551 889.706 976.354 890.493L973.486 901.967C973.249 902.915 972.288 903.491 971.34 903.254C970.393 903.017 969.816 902.056 970.053 901.108L972.922 889.635Z" fill="#2B2D34"/>
<path d="M810.5 1460V1464M823 1475L822.192 1476.08C821.827 1476.56 821.115 1476.62 820.685 1476.18L817.293 1472.79C817.105 1472.61 816.851 1472.5 816.586 1472.5H813.75H811.5C810.948 1472.5 810.5 1472.05 810.5 1471.5V1464M810.5 1464H816" stroke="#2B2D34" stroke-width="3" stroke-linecap="round"/>
<circle cx="810.5" cy="1454.5" r="3.5" fill="#2B2D34"/>
<path d="M817.652 1479.44C816.773 1480.76 815.523 1481.79 814.061 1482.39C812.6 1483 810.991 1483.15 809.439 1482.85C807.887 1482.54 806.462 1481.78 805.343 1480.66C804.224 1479.54 803.462 1478.11 803.154 1476.56C802.845 1475.01 803.003 1473.4 803.609 1471.94C804.214 1470.48 805.24 1469.23 806.555 1468.35" stroke="#2B2D34" stroke-width="3" stroke-linecap="round"/>
<rect x="1048" y="236" width="29" height="18" rx="2" fill="white" stroke="#2B2D34" stroke-width="2"/>
<path d="M1047 255.5L1058.29 255.5C1058.75 255.5 1059.18 255.68 1059.5 256C1059.82 256.32 1060.25 256.5 1060.71 256.5H1064.29C1064.75 256.5 1065.18 256.32 1065.5 256C1065.82 255.68 1066.25 255.5 1066.71 255.5L1078 255.5C1078 256.605 1077.1 257.5 1076 257.5H1049C1047.9 257.5 1047 256.605 1047 255.5Z" fill="#2B2D34"/>
<mask id="path-61-outside-1_835_1346" maskUnits="userSpaceOnUse" x="1056" y="224" width="14" height="20" fill="black">
<rect fill="white" x="1056" y="224" width="14" height="20"/>
<path fill-rule="evenodd" clip-rule="evenodd" d="M1064.44 227.554C1064.5 227 1063.74 226.78 1063.5 227.278L1059.05 236.161C1058.86 236.559 1059.24 236.999 1059.66 236.859L1061.44 236.264C1061.79 236.149 1062.14 236.429 1062.1 236.79L1061.63 241.277C1061.57 241.831 1062.32 242.051 1062.57 241.553L1067.01 232.67C1067.21 232.272 1066.83 231.832 1066.41 231.972L1064.62 232.568C1064.28 232.683 1063.93 232.403 1063.97 232.041L1064.44 227.554Z"/>
</mask>
<path fill-rule="evenodd" clip-rule="evenodd" d="M1064.44 227.554C1064.5 227 1063.74 226.78 1063.5 227.278L1059.05 236.161C1058.86 236.559 1059.24 236.999 1059.66 236.859L1061.44 236.264C1061.79 236.149 1062.14 236.429 1062.1 236.79L1061.63 241.277C1061.57 241.831 1062.32 242.051 1062.57 241.553L1067.01 232.67C1067.21 232.272 1066.83 231.832 1066.41 231.972L1064.62 232.568C1064.28 232.683 1063.93 232.403 1063.97 232.041L1064.44 227.554Z" fill="#F9CB48"/>
<path d="M1064.62 232.568L1063.99 230.67L1064.62 232.568ZM1063.97 232.041L1061.98 231.832L1063.97 232.041ZM1067.01 232.67L1068.8 233.565L1067.01 232.67ZM1066.41 231.972L1067.04 233.87L1066.41 231.972ZM1062.57 241.553L1060.78 240.659L1062.57 241.553ZM1061.44 236.264L1060.81 234.366L1061.44 236.264ZM1062.1 236.79L1060.11 236.581L1062.1 236.79ZM1063.5 227.278L1061.71 226.383L1063.5 227.278ZM1059.05 236.161L1057.27 235.266L1059.05 236.161ZM1059.66 236.859L1059.03 234.961L1059.66 236.859ZM1060.84 237.055L1065.28 228.172L1061.71 226.383L1057.27 235.266L1060.84 237.055ZM1060.81 234.366L1059.03 234.961L1060.29 238.756L1062.08 238.161L1060.81 234.366ZM1063.62 241.487L1064.09 237L1060.11 236.581L1059.64 241.068L1063.62 241.487ZM1065.22 231.776L1060.78 240.659L1064.36 242.448L1068.8 233.565L1065.22 231.776ZM1065.26 234.465L1067.04 233.87L1065.78 230.075L1063.99 230.67L1065.26 234.465ZM1062.45 227.344L1061.98 231.832L1065.96 232.25L1066.43 227.763L1062.45 227.344ZM1063.99 230.67C1065.03 230.325 1066.07 231.165 1065.96 232.25L1061.98 231.832C1061.79 233.64 1063.53 235.04 1065.26 234.465L1063.99 230.67ZM1068.8 233.565C1069.8 231.573 1067.89 229.371 1065.78 230.075L1067.04 233.87C1065.77 234.292 1064.63 232.971 1065.22 231.776L1068.8 233.565ZM1059.64 241.068C1059.35 243.836 1063.12 244.937 1064.36 242.448L1060.78 240.659C1061.53 239.165 1063.79 239.826 1063.62 241.487L1059.64 241.068ZM1062.08 238.161C1061.04 238.506 1060 237.666 1060.11 236.581L1064.09 237C1064.28 235.191 1062.54 233.791 1060.81 234.366L1062.08 238.161ZM1065.28 228.172C1064.54 229.666 1062.28 229.005 1062.45 227.344L1066.43 227.763C1066.72 224.995 1062.95 223.894 1061.71 226.383L1065.28 228.172ZM1057.27 235.266C1056.27 237.258 1058.18 239.46 1060.29 238.756L1059.03 234.961C1060.29 234.539 1061.44 235.86 1060.84 237.055L1057.27 235.266Z" fill="#2B2D34" mask="url(#path-61-outside-1_835_1346)"/>
<path d="M469.717 1474.12C468.821 1474.12 468.085 1473.96 467.509 1473.63C466.941 1473.29 466.545 1472.79 466.321 1472.13L468.553 1471.2C468.561 1471.48 468.609 1471.7 468.697 1471.86C468.785 1472.02 468.905 1472.14 469.057 1472.2C469.217 1472.26 469.385 1472.28 469.561 1472.28C469.737 1472.28 469.889 1472.26 470.017 1472.2C470.153 1472.14 470.257 1472.04 470.329 1471.92C470.401 1471.8 470.437 1471.66 470.437 1471.5C470.437 1471.32 470.397 1471.18 470.317 1471.07C470.245 1470.97 470.145 1470.9 470.017 1470.86C469.889 1470.81 469.741 1470.78 469.573 1470.78C469.461 1470.78 469.361 1470.79 469.273 1470.8C469.193 1470.8 469.097 1470.82 468.985 1470.83V1469.34C469.049 1469.35 469.113 1469.36 469.177 1469.37C469.241 1469.37 469.321 1469.37 469.417 1469.37C469.713 1469.37 469.929 1469.3 470.065 1469.18C470.201 1469.05 470.269 1468.84 470.269 1468.55C470.269 1468.31 470.201 1468.13 470.065 1468C469.937 1467.86 469.757 1467.8 469.525 1467.8C469.277 1467.8 469.065 1467.87 468.889 1468.02C468.721 1468.17 468.625 1468.44 468.601 1468.83L466.477 1468.14C466.541 1467.66 466.721 1467.26 467.017 1466.94C467.321 1466.62 467.701 1466.38 468.157 1466.21C468.621 1466.04 469.133 1465.96 469.693 1465.96C470.325 1465.96 470.857 1466.05 471.289 1466.22C471.729 1466.4 472.061 1466.65 472.285 1466.98C472.517 1467.31 472.633 1467.71 472.633 1468.18C472.633 1468.54 472.573 1468.84 472.453 1469.07C472.341 1469.3 472.197 1469.48 472.021 1469.62C471.845 1469.76 471.677 1469.86 471.517 1469.92C471.357 1469.98 471.233 1470 471.145 1470V1470.05C471.241 1470.05 471.377 1470.07 471.553 1470.11C471.737 1470.15 471.921 1470.23 472.105 1470.34C472.297 1470.45 472.457 1470.62 472.585 1470.84C472.721 1471.06 472.789 1471.35 472.789 1471.71C472.789 1472.2 472.653 1472.64 472.381 1473C472.109 1473.36 471.741 1473.64 471.277 1473.83C470.813 1474.02 470.293 1474.12 469.717 1474.12ZM477.597 1474V1472.38H473.733V1470.88C473.829 1470.7 473.953 1470.49 474.105 1470.24C474.265 1470 474.453 1469.71 474.669 1469.38L476.877 1466.08H479.733V1470.76H480.861V1472.38H479.733V1474H477.597ZM475.605 1470.76H477.633V1468.55C477.633 1468.42 477.633 1468.27 477.633 1468.12C477.641 1467.96 477.649 1467.8 477.657 1467.63H477.633C477.553 1467.78 477.469 1467.94 477.381 1468.1C477.293 1468.25 477.205 1468.39 477.117 1468.52L475.941 1470.27C475.893 1470.35 475.841 1470.43 475.785 1470.51C475.729 1470.59 475.669 1470.67 475.605 1470.76ZM485.039 1474.12C483.895 1474.12 483.039 1473.78 482.471 1473.1C481.903 1472.41 481.619 1471.39 481.619 1470.04C481.619 1468.69 481.903 1467.67 482.471 1466.99C483.039 1466.3 483.895 1465.96 485.039 1465.96C486.183 1465.96 487.035 1466.3 487.595 1466.99C488.163 1467.67 488.447 1468.69 488.447 1470.04C488.447 1471.39 488.163 1472.41 487.595 1473.1C487.035 1473.78 486.183 1474.12 485.039 1474.12ZM485.039 1472.25C485.287 1472.25 485.483 1472.18 485.627 1472.04C485.771 1471.91 485.875 1471.68 485.939 1471.36C486.003 1471.03 486.035 1470.59 486.035 1470.04C486.035 1469.49 486.003 1469.05 485.939 1468.73C485.875 1468.4 485.771 1468.17 485.627 1468.04C485.483 1467.9 485.287 1467.83 485.039 1467.83C484.791 1467.83 484.591 1467.9 484.439 1468.04C484.295 1468.17 484.191 1468.4 484.127 1468.73C484.063 1469.05 484.031 1469.49 484.031 1470.04C484.031 1470.59 484.063 1471.03 484.127 1471.36C484.191 1471.68 484.295 1471.91 484.439 1472.04C484.591 1472.18 484.791 1472.25 485.039 1472.25Z" fill="#2B2D34"/>
<path d="M469.161 1486.67H473.337V1488H467.505V1480.08H469.161V1486.67ZM478.036 1480.08C478.644 1480.08 479.164 1480.18 479.596 1480.39C480.028 1480.59 480.36 1480.88 480.592 1481.27C480.832 1481.64 480.952 1482.1 480.952 1482.64C480.952 1483.17 480.832 1483.63 480.592 1484.02C480.36 1484.39 480.028 1484.68 479.596 1484.89C479.164 1485.09 478.644 1485.19 478.036 1485.19H476.368V1488H474.712V1480.08H478.036ZM477.784 1483.88C478.28 1483.88 478.652 1483.78 478.9 1483.57C479.148 1483.36 479.272 1483.04 479.272 1482.64C479.272 1482.22 479.148 1481.91 478.9 1481.7C478.652 1481.49 478.28 1481.39 477.784 1481.39H476.368V1483.88H477.784ZM481.858 1480.08H488.134V1481.34C487.47 1482 486.942 1482.69 486.55 1483.39C486.158 1484.1 485.874 1484.83 485.698 1485.59C485.53 1486.35 485.446 1487.15 485.446 1488H483.802C483.802 1487.12 483.91 1486.28 484.126 1485.47C484.35 1484.65 484.69 1483.88 485.146 1483.14C485.61 1482.4 486.198 1481.68 486.91 1481L487.246 1481.44H481.858V1480.08Z" fill="#2B2D34"/>
<rect x="743" y="561" width="122" height="40" fill="white"/>
<path d="M886.5 592C886.224 592 886 591.776 886 591.5V589.5C886 589.224 885.776 589 885.5 589H882.509C882.233 589 882.009 588.777 882.009 588.502L882.002 586.498C882.001 586.223 881.777 586 881.502 586H878.5C878.224 586 878 585.776 878 585.5V583.5C878 583.224 877.776 583 877.5 583H872.5C872.224 583 872 583.224 872 583.5V585.5C872 585.776 872.224 586 872.5 586H875.5C875.776 586 876 586.224 876 586.5V588.5C876 588.776 876.224 589 876.5 589H879.5C879.776 589 880 589.224 880 589.5V591.5C880 591.776 880.224 592 880.5 592H883.5C883.776 592 884 592.224 884 592.5V594.5C884 594.776 884.224 595 884.5 595H886.5C886.776 595 887 595.224 887 595.5V597.5C887 597.776 887.224 598 887.5 598H892.5C892.776 598 893 597.776 893 597.5V595.5C893 595.224 892.776 595 892.5 595H890.5C890.224 595 890 594.776 890 594.5V592.5C890 592.224 889.776 592 889.5 592H886.5Z" fill="#2B2D34"/>
<path d="M888 589L886 584V577.5M886 577.5L882 579.5L880.5 583.5M886 577.5L885 571.5M885 571.5L882 574.5L879 573.5M885 571.5L888.5 572.5L890 576.5" stroke="#2B2D34" stroke-width="3" stroke-linecap="round" stroke-linejoin="round"/>
<circle cx="2.5" cy="2.5" r="2.5" transform="matrix(-1 0 0 1 887 564)" fill="#2B2D34"/>
<path d="M773 561V600" stroke="#2B2D34" stroke-width="2"/>
<path d="M757.667 561V600" stroke="#2B2D34" stroke-width="2"/>
<path d="M788.333 561V600" stroke="#2B2D34" stroke-width="2"/>
<path d="M803.667 561V600" stroke="#2B2D34" stroke-width="2"/>
<path d="M865 561V600" stroke="#2B2D34" stroke-width="2"/>
<path d="M834.333 561V600" stroke="#2B2D34" stroke-width="2"/>
<path d="M819 561V600" stroke="#2B2D34" stroke-width="2"/>
<path d="M849.667 561V600" stroke="#2B2D34" stroke-width="2"/>
<path d="M906 561H747C744.239 561 742 563.239 742 566V596C742 598.761 744.239 601 747 601H906" stroke="#2B2D34" stroke-width="3"/>
<circle cx="1094.5" cy="597.5" r="11.5" fill="#C28CFC" stroke="#2B2D34" stroke-width="2"/>
<rect x="974.5" y="749.5" width="24" height="24" rx="1.5" fill="#A4EB5D" stroke="#2B2D34"/>
<path d="M991.622 757.436C991.821 757.206 992.179 757.206 992.378 757.436L993.882 759.173C994.162 759.496 993.932 760 993.504 760H990.496C990.068 760 989.838 759.496 990.118 759.173L991.622 757.436Z" fill="#2B2D34"/>
<path d="M992.378 765.564C992.179 765.794 991.821 765.794 991.622 765.564L990.118 763.827C989.838 763.504 990.068 763 990.496 763L993.504 763C993.932 763 994.162 763.504 993.882 763.827L992.378 765.564Z" fill="#2B2D34"/>
<path d="M985.444 753.057C985.444 754.192 984.574 755.113 983.5 755.113C982.426 755.113 981.556 754.192 981.556 753.057C981.556 751.921 982.426 751 983.5 751C984.574 751 985.444 751.921 985.444 753.057Z" fill="#2B2D34"/>
<path d="M981.556 763.774C981.556 763.319 981.904 762.951 982.333 762.951C982.763 762.951 983.111 763.319 983.111 763.774V771.177C983.111 771.632 982.763 772 982.333 772C981.904 772 981.556 771.632 981.556 771.177V763.774Z" fill="#2B2D34"/>
<path d="M980 757.708C980 757.294 980.317 756.959 980.708 756.959C981.098 756.959 981.415 757.294 981.415 757.708V763.826C981.415 764.239 981.098 764.575 980.708 764.575C980.317 764.575 980 764.239 980 763.826V757.708Z" fill="#2B2D34"/>
<path d="M985.624 757.687C985.624 757.285 985.932 756.959 986.312 756.959C986.692 756.959 987 757.285 987 757.687V763.847C987 764.249 986.692 764.575 986.312 764.575C985.932 764.575 985.624 764.249 985.624 763.847V757.687Z" fill="#2B2D34"/>
<path d="M983.889 763.774C983.889 763.319 984.237 762.951 984.667 762.951C985.096 762.951 985.444 763.319 985.444 763.774V771.177C985.444 771.632 985.096 772 984.667 772C984.237 772 983.889 771.632 983.889 771.177V763.774Z" fill="#2B2D34"/>
<path d="M980 757.437C980 756.265 980.899 755.314 982.007 755.314H984.993C986.101 755.314 987 756.265 987 757.437V758.286H980V757.437Z" fill="#2B2D34"/>
<path d="M981.556 756.959H985.444V763.933H981.556V756.959Z" fill="#2B2D34"/>
</svg>
