<svg width="21" height="21" viewBox="0 0 21 21" fill="none" xmlns="http://www.w3.org/2000/svg">
<path d="M11.8577 7.26739C12.2721 6.84186 12.9382 6.84186 13.3525 7.26739C13.7741 7.70038 13.7741 8.40778 13.3525 8.84077L2.95858 19.5157C2.54425 19.9412 1.87816 19.9412 1.46384 19.5157C1.04225 19.0827 1.04225 18.3753 1.46384 17.9423L11.8577 7.26739Z" fill="#F98452" stroke="#2B2D34"/>
<path d="M6.71751 2.6967C9.64644 -0.232233 14.3952 -0.232233 17.3241 2.6967C20.253 5.62563 20.253 10.3744 17.3241 13.3033C14.3952 16.2322 9.64644 16.2322 6.71751 13.3033C3.78858 10.3744 3.78858 5.62563 6.71751 2.6967Z" fill="#F9CB48" stroke="#2B2D34"/>
<path d="M8.83883 11.182C7.08147 9.42462 7.08147 6.57538 8.83883 4.81802C10.5962 3.06066 13.4454 3.06066 15.2028 4.81802C16.9602 6.57538 16.9602 9.42462 15.2028 11.182C13.4454 12.9393 10.5962 12.9393 8.83883 11.182Z" fill="#E0E3FF" stroke="#2B2D34"/>
<path d="M11.9602 5.93934C12.5459 5.35355 13.4957 5.35355 14.0815 5.93934C14.6673 6.52513 14.6673 7.47487 14.0815 8.06066C13.4957 8.64645 12.5459 8.64645 11.9602 8.06066C11.3744 7.47487 11.3744 6.52513 11.9602 5.93934Z" fill="#F98452" stroke="#2B2D34"/>
</svg>
