<svg width="25" height="23" viewBox="0 0 25 23" fill="none" xmlns="http://www.w3.org/2000/svg">
<path d="M1.19968 10.7274L6.21475 1.72705C6.4819 1.24761 6.97176 0.959961 7.4936 0.959961L17.5064 0.959961C18.0282 0.959961 18.5181 1.24761 18.7852 1.72705L23.8003 10.7274C24.0666 11.2052 24.0666 11.7947 23.8003 12.2725L18.7852 21.2729C18.5181 21.7523 18.0282 22.04 17.5064 22.04H7.49361C6.97176 22.04 6.4819 21.7523 6.21475 21.2729L1.19968 12.2725C0.933441 11.7947 0.933441 11.2052 1.19968 10.7274Z" fill="#F9CB48" stroke="#2B2D34"/>
<path d="M5.00937 10.8774L8.2015 5.42766C8.42779 5.04133 8.84862 4.7998 9.30789 4.7998L15.6922 4.7998C16.1514 4.7998 16.5723 5.04133 16.7986 5.42766L19.9907 10.8774C20.2165 11.2628 20.2165 11.7368 19.9907 12.1222L16.7986 17.572C16.5723 17.9583 16.1514 18.1998 15.6922 18.1998H9.30789C8.84862 18.1998 8.42779 17.9583 8.20151 17.572L5.00937 12.1222C4.78358 11.7368 4.78358 11.2628 5.00937 10.8774Z" fill="#8FC9FF" stroke="#2B2D34"/>
<circle cx="12.5" cy="11.5006" r="2.86" fill="#F98452" stroke="#2B2D34"/>
</svg>
