<svg width="25" height="25" viewBox="0 0 25 25" fill="none" xmlns="http://www.w3.org/2000/svg">
<path d="M1.19968 13.2725C0.933441 12.7947 0.933441 12.2052 1.19968 11.7274L6.21475 2.72705C6.4819 2.24761 6.97176 1.95996 7.4936 1.95996H17.5064C18.0282 1.95996 18.5181 2.24761 18.7852 2.72705L23.8003 11.7274C24.0666 12.2052 24.0666 12.7947 23.8003 13.2725L18.7852 22.2729C18.5181 22.7523 18.0282 23.04 17.5064 23.04H7.49361C6.97176 23.04 6.4819 22.7523 6.21475 22.2729L1.19968 13.2725ZM5.75323 11.5264C5.41559 12.1295 5.41559 12.8705 5.75323 13.4736L8.29599 18.015C8.6345 18.6196 9.26569 19 9.95724 19H15.0428C15.7343 19 16.3655 18.6196 16.704 18.015L19.2468 13.4736C19.5844 12.8705 19.5844 12.1295 19.2468 11.5264L16.704 6.98501C16.3655 6.38042 15.7343 6 15.0428 6H9.95724C9.26568 6 8.6345 6.38042 8.29599 6.98502L5.75323 11.5264Z" fill="#F9CB48" stroke="#2B2D34"/>
<circle cx="12.5" cy="12.5006" r="2.86" fill="#F98452" stroke="#2B2D34"/>
</svg>
